<?xml version="1.0" encoding="utf-8"?>
<!-- Generator: Adobe Illustrator 23.1.0, SVG Export Plug-In . SVG Version: 6.00 Build 0)  -->
<svg version="1.1" id="Слой_1" xmlns="http://www.w3.org/2000/svg" xmlns:xlink="http://www.w3.org/1999/xlink" x="0px" y="0px"
	 viewBox="0 0 2365 1604" style="enable-background:new 0 0 2365 1604;" xml:space="preserve">
<style type="text/css">
	.st0{clip-path:url(#SVGID_2_);}
	.st1{fill:#FFFFFF;}
	.st2{fill:url(#SVGID_3_);}
	.st3{opacity:0.7;fill:#FCFCFC;enable-background:new    ;}
	.st4{fill:url(#SVGID_4_);}
	.st5{fill:url(#SVGID_5_);fill-opacity:0.8;}
	.st6{opacity:0.54;fill:#FCFCFC;fill-opacity:0.45;enable-background:new    ;}
	.st7{clip-path:url(#SVGID_7_);}
	.st8{fill:url(#SVGID_8_);}
	.st9{fill-opacity:0.53;}
	.st10{fill:url(#SVGID_9_);}
	.st11{opacity:0.54;fill:#FCFCFC;enable-background:new    ;}
	.st12{clip-path:url(#SVGID_11_);}
	.st13{fill:url(#SVGID_12_);}
	.st14{fill:url(#SVGID_13_);}
	.st15{opacity:0.4;fill:#FCFCFC;enable-background:new    ;}
	.st16{opacity:0.7;fill:#FCFCFC;fill-opacity:0.43;enable-background:new    ;}
	.st17{opacity:0.56;fill:#FCFCFC;enable-background:new    ;}
	.st18{opacity:0.59;fill:#FCFCFC;enable-background:new    ;}
</style>
<g>
	<defs>
		<rect id="SVGID_1_" width="2365" height="1604"/>
	</defs>
	<clipPath id="SVGID_2_">
		<use xlink:href="#SVGID_1_"  style="overflow:visible;"/>
	</clipPath>
	<g class="st0">
		<path class="st1" d="M0,0h2365v1604H0V0z"/>
		
			<linearGradient id="SVGID_3_" gradientUnits="userSpaceOnUse" x1="5279.0767" y1="-998.5346" x2="5291.1821" y2="-1405.3018" gradientTransform="matrix(1 0 0 -1 -4119 -950)">
			<stop  offset="0" style="stop-color:#D38E98"/>
			<stop  offset="1" style="stop-color:#FFC09A"/>
		</linearGradient>
		<path class="st2" d="M2365,0H0v1604h2365V0z"/>
		<path class="st3" d="M548.4,541.7H287.3c0,0,32-19.9,66.2-6.3c-0.8-8.2,5.2-19.4,55.1,1c1.8-17.3,36.5-56.1,82.8-3.2
			C506.5,529.3,527.7,528.2,548.4,541.7z"/>
		
			<linearGradient id="SVGID_4_" gradientUnits="userSpaceOnUse" x1="5013.1836" y1="-1334.5809" x2="5004.6699" y2="-1439.9288" gradientTransform="matrix(1 0 0 -1 -4119 -950)">
			<stop  offset="0" style="stop-color:#465C7B;stop-opacity:0.1"/>
			<stop  offset="1" style="stop-color:#C17C97;stop-opacity:0.14"/>
		</linearGradient>
		<path class="st4" d="M1538.7,1016.6l-40.5-15.7h-34.3c-20.3,0-68.6-13.8-68.6-13.8l-15.6-13.8l-23.4-28.9V933l-18.7-16.8
			l-10.9-15.9l-9.4-5l-7.8-22.1c0,0-4.7-6.9-9.4-10.6c-4.7-3.8-7.8-7.5-12.5-13.8c-4.7-6.3-14-13.8-14-13.8s-12.5-11.3-15.6-18.9
			c-3.1-7.5,0-13.8,0-13.8l-17.2-11.3l-31.2-6.3l-12.5-6.3c0,0-9.4-10.1-14-13.8c-4.7-3.8,6.2,5-4.7-3.8
			c-10.9-8.8-18.7-11.3-20.3-15.1c-1.6-3.8-14-11.3-14-11.3s-9.4-3.8-14-6.3c-4.7-2.5-4.7,7.5-10.9,0c-6.2-7.5,6.2,0-6.2-7.5
			c-12.5-7.5-9.4-10.1-15.6-15.1c-6.2-5-7.8-8.8-12.5-10.1s-10.9,0-10.9,0l-14-17.6c0,0-15.6-21.4-20.3-26.4
			c-4.7-5-17.2-21.4-17.2-21.4l-15.6-17.6l-18.7-13.8l-10.9-8.8l-17.2-18.9l-3.4-12.6c0,0-6-6.3-13.8-7.5
			c-12.6,10.5-8.7-7.6-25.4-2.5c-12.9-5-21.3,2.2-21.3,2.2l-6.3-11.2l-20.2-6l-18.7-18.9c0,0-6.2-14.2-10.9-13.4
			c-4.7,0.8-43.7-14.3-43.7-14.3l-14-8.8l-7-10.1h-16.7l-7.7,2.6l-10.3,16.4v-16.4c0,0-19.1-5-23.8,0c-4.7,5-12.5,13.8-12.5,13.8
			l-6.2,7.5l-7.8,9.2c0,0-1.6,18.4-6.2,21c-4.7,2.5-17.2,10.1-17.2,10.1v11.3c0,0-12.5,1.3-17.2,5l-4.7,3.8c0,0-6.2-7.5-12.5,6.3
			c-6.2,13.8-10.9,17.8-10.9,17.8l-6.2,13.6l-14,10.1c0,0-6.1-1.3-8.5,5c-2.4,6.3-8.7,12.6-8.7,12.6s14,5,0,6.3s-32.7,1.3-32.7,1.3
			l-6.2,6.3l-7.8,2.5c0,0-15.6,20.1-21.8,17.6c-6.2-2.5-26.5,7.5-26.5,7.5l-23.4,25.2l-14,13.8l-6.2,18.9l-18.7,26.4l-33.5,21.4
			l-39.8,25.2c0,0-17.2,6.3-26.5,10.1c-9.4,3.8-14,2.5-20.3,13.8c-6.2,11.3-17.2,28.9-17.2,28.9l-6.2,11.3c0,0,0,17.6-4.7,25.2
			c-4.7,7.5-20.3,21.4-20.3,21.4s-7.8,5-14,10.1c-6.2,5-24.9,15.1-31.2,20.1c-6.2,5-25,22.7-25,22.7l-40.5,59.8L1538.7,1016.6z"/>
		
			<linearGradient id="SVGID_5_" gradientUnits="userSpaceOnUse" x1="5684.9932" y1="-1266.6763" x2="5890.3867" y2="-1951.322" gradientTransform="matrix(1 0 0 -1 -4119 -950)">
			<stop  offset="0" style="stop-color:#BE7B96;stop-opacity:0.65"/>
			<stop  offset="1" style="stop-color:#465C7B"/>
		</linearGradient>
		<path class="st5" d="M699.4,1016.6h2153.3l-377.1-442.8l-93.5-92.5c0,0-6.2-17.6-21.8-28.6c-15.6-11-40.5-28.6-40.5-28.6
			l-62.3-48.5h-31.2l-24.9-22l-28-17.3c0,0-2.3,0.4-6.2,1c-14.2,2.3-48.8,7.9-56.2,9.7c-9.3,2.2-28,15.4-28,15.4l-37.4,6.6l-43.6-11
			h-15.6l-31.2,22c0,0-21.8,15.4-28,24.2c-0.7,1-1.4,2-2.2,3.2c-6,9.3-13.4,23.2-13.4,23.2s-24.9,35.3-34.3,37.5
			c-9.3,2.2-15.6,8.8-21.8,15.4c-6.2,6.6-15.6,24.2-15.6,24.2l-21.8,19.8l-15.6,4.4l-37.4,22l-24.9,19.8c0,0-6.2,17.6-15.6,26.4
			c-9.3,8.8-12.5,13.2-24.9,24.2c-12.5,11-15.6,17.6-21.8,24.2c-6.2,6.6-18.7,15.4-18.7,15.4s-9.3,13.2-21.8,17.6
			c-12.5,4.4-9.3,4.4-24.9,13.2c-15.6,8.8-43.6,26.4-43.6,26.4s-18.7,4.4-31.2,17.6c-10.2,10.8-18.4,20.2-21,23.2
			c-0.6,0.7-0.9,1-0.9,1l-34.3,41.9c0,0-0.1,0.1-0.2,0.4c-1,2.4-6.7,16.1-12.3,26.1c-6.2,11-6.2,11-6.2,11l-15.6,14.2
			c0,0-21.8,25.4-34.3,32c-12.5,6.6-28,11-49.9,13.2c-21.8,2.2-34.3,8.8-49.9,8.8c-15.6,0,15.6,6.6-15.6,0l-31.2-6.6
			c0,0-24.9-4.4-46.7-13.2c-21.8-8.8-40.5-17.6-40.5-17.6s3.1-11.2-15.6-16.6c-18.7-5.4-53,0-53,0s-0.3,0.1-0.8,0.4
			c-4.3,2.3-26,13.8-42.7,22c-2.2,1.1-4.4,2.1-6.4,3.1c-18.7,8.8-56.1,31.6-56.1,31.6l-93.5,18.3c0,0-43.6,29.4-62.3,31.6
			c-18.7,2.2-24.9-4.4-37.4,0c-12.5,4.4-53,11-62.3,15.4c-9.3,4.4-3.1,8.8-12.5,13.2c-5.2,2.4-16,9.6-24.7,15.5
			C705,1012.7,699.4,1016.6,699.4,1016.6L699.4,1016.6z"/>
		<path class="st6" d="M2096.8,434.8l295.7,3.5c0,0-14.7-9.8-38-6.2c-0.7-5.2-5.4-15.6-33.3-8.6c4-3,6.4-6.9,6.4-11
			c0-9.9-13.5-17.9-30.2-17.9c-9.4,0-17.8,2.5-23.3,6.5c-3.7-12.2-20.7-21.4-41.2-21.4c-23.2,0-41.9,11.8-41.9,26.3
			c0,4.1,1.5,7.9,4.1,11.4c-13.7-0.6-41.9,0.1-52.3,14.5c0.6,0.2,1.2,0.3,1.7,0.5l-2.4,0.6c0.2-0.4,0.5-0.7,0.7-1.1
			C2133.8,429.5,2114.5,426.2,2096.8,434.8L2096.8,434.8z"/>
		<g>
			<defs>
				<rect id="SVGID_6_" x="670.6" y="486.2" width="1815.3" height="858.6"/>
			</defs>
			<clipPath id="SVGID_7_">
				<use xlink:href="#SVGID_6_"  style="overflow:visible;"/>
			</clipPath>
			<g class="st7">
				
					<linearGradient id="SVGID_8_" gradientUnits="userSpaceOnUse" x1="5703.0825" y1="-1906.0677" x2="5617.478" y2="-1508.4584" gradientTransform="matrix(1 0 0 -1 -4119 -950)">
					<stop  offset="0" style="stop-color:#465C7B"/>
					<stop  offset="1" style="stop-color:#C17C97"/>
				</linearGradient>
				<path class="st8" d="M2485.9,513.5l-153.4-20.8c0,0-32.4-6.4-53.3-6.4h-68.9c0,0-41.9,12.4-50.9,27.2c-9,14.8-41.9,47-41.9,47
					s-15,24.7-24,39.6c-9,14.8-6,14.8-30,22.3c-24,7.4-65.9,24.7-80.9,22.3c-15-2.5-41.9-2.5-62.9-7.4c-21-4.9-6.4-2.3-21-4.9
					c-36.3,0-53.9,12.6-53.9,12.6l-47.9,24.5c0,0-21,27.2-47.9,32.2c-27,4.9-30-17.3-38.9,0c-32.4,9.9-47.9,27.2-47.9,27.2
					s-27-4.9-35.9-4.9c-9,0-86.9-21.5-86.9-21.5s-9-18.1-27-10.6c-18,7.4-32.9,7.4-41.9,19.8c-9,12.4,6,29.7-18,37.1
					c-24,7.4-65.9,27.2-83.9,42.1c-18,14.8-24,17.3-32.9,27.2c-9,9.9-35.9,39.6-35.9,39.6l-47.9,54.4c0,0-12,14.8-32.9,22.3
					c-21,7.4-56.9,24.7-56.9,24.7s-24,12.4-41.9,37.1c-18,24.7-27,7.4-50.9,59.4c-24,52-15,69.3-41.9,99
					c-27,29.7-59.9,54.4-59.9,54.4s-12,22.3-53.9,29.7c-41.9,7.4-101.9,12.4-128.8,19.8c-27,7.4-56.9,27.2-56.9,27.2l-56.9,59.4
					l1815.3-9.9V513.5L2485.9,513.5z"/>
				<path class="st9" d="M1082.3,579.3c10.2-6.7,34-18.8,48-13.9S1104.2,576.7,1082.3,579.3z M1071.1,579.3
					c-8.6-5.8-30.6-16.8-49.4-13.9C1028.8,570.1,1048.7,579.3,1071.1,579.3z"/>
				<path class="st9" d="M1069.8,579.3c18.8-1.1,43.3,3.1,53.2,5.3l-73.5-1.6C1048.4,582.3,1051,580.4,1069.8,579.3z"/>
			</g>
		</g>
		
			<linearGradient id="SVGID_9_" gradientUnits="userSpaceOnUse" x1="4352.2051" y1="-1939.1185" x2="4549.1797" y2="-1376.9696" gradientTransform="matrix(1 0 0 -1 -4119 -950)">
			<stop  offset="0" style="stop-color:#465C7B;stop-opacity:0.66"/>
			<stop  offset="1" style="stop-color:#C17C97"/>
		</linearGradient>
		<path class="st10" d="M-574.7,1133.5l44.2-19h37.4c22.1,0,74.8-16.7,74.8-16.7l17-16.7l25.5-34.9v-13.6l20.4-20.2l11.9-19.2
			l10.2-6.1l8.5-26.6c0,0,5.1-8.3,10.2-12.8c5.1-4.5,8.5-9.1,13.6-16.7c5.1-7.6,15.3-16.7,15.3-16.7s13.6-13.6,17-22.7
			c3.4-9.1,0-16.7,0-16.7l18.7-13.6l34-7.6l13.6-7.6c0,0,10.2-12.1,15.3-16.7c5.1-4.5-6.8,6.1,5.1-4.5
			c11.9-10.6,20.4-13.6,22.1-18.2c1.7-4.5,15.3-13.6,15.3-13.6s10.2-4.5,15.3-7.6c5.1-3,5.1,9.1,11.9,0c6.8-9.1-6.8,0,6.8-9.1
			c13.6-9.1,10.2-12.1,17-18.2c6.8-6.1,8.5-10.6,13.6-12.1c5.1-1.5,11.9,0,11.9,0l15.3-21.2c0,0,17-25.8,22.1-31.8
			c5.1-6.1,18.7-25.8,18.7-25.8l17-21.2l20.4-16.7L37.2,619l18.7-22.7V572c0,0,10.2,1.5,18.7,0c8.5-1.5,22.1,1.5,27.2,0
			c5.1-1.5,23.8-0.4,23.8-0.4l15.3-13.2l13.6-7.6l20.4-22.7c0,0,6.8-17.2,11.9-16.2c5.1,1,47.6-17.2,47.6-17.2l15.3-10.6l8.5-16.7
			l20.4-13.6v-9.1h15.3l17,15.2c0,0,5.1,9.1,10.2,15.2c5.1,6.1,13.6,16.7,13.6,16.7l6.8,9.1l8.5,11.1c0,0,1.7,22.2,6.8,25.2
			c5.1,3,18.7,12.1,18.7,12.1v13.6c0,0,13.6,1.5,18.7,6.1l5.1,4.5c0,0,6.8-9.1,13.6,7.6c6.8,16.7,11.9,21.5,11.9,21.5l6.8,16.4
			l15.3,12.1c0,0,6.6-1.5,9.3,6.1c2.6,7.6,9.4,15.2,9.4,15.2s-15.3,6.1,0,7.6c15.3,1.5,35.7,1.5,35.7,1.5l6.8,7.6l8.5,3
			c0,0,17,24.2,23.8,21.2c6.8-3,28.9,9.1,28.9,9.1l25.5,30.3l15.3,16.7l6.8,22.7l20.4,31.8l36.5,25.8l43.3,30.3
			c0,0,18.7,7.6,28.9,12.1c10.2,4.5,15.3,3,22.1,16.7c6.8,13.6,18.7,34.9,18.7,34.9l6.8,13.6c0,0,0,21.2,5.1,30.3
			c5.1,9.1,22.1,25.8,22.1,25.8s8.5,6.1,15.3,12.1c6.8,6.1,27.2,18.2,34,24.2c6.8,6.1,27.2,27.3,27.2,27.3l44.2,72L-574.7,1133.5z"
			/>
		<path class="st11" d="M35.6,561.5l295.7,3.5c0,0-14.7-9.8-38-6.2c-0.7-5.2-5.4-15.6-33.3-8.6c4-3,6.4-6.9,6.4-11
			c0-9.9-13.5-17.9-30.2-17.9c-9.4,0-17.8,2.5-23.3,6.5c-3.7-12.2-20.7-21.4-41.2-21.4c-23.1,0-41.9,11.8-41.9,26.3
			c0,4.1,1.5,7.9,4.1,11.4c-13.7-0.6-41.9,0.1-52.3,14.5c0.6,0.2,1.1,0.3,1.7,0.5l-2.4,0.6c0.2-0.4,0.5-0.7,0.7-1.1
			C72.6,556.2,53.3,552.9,35.6,561.5L35.6,561.5z"/>
		<g>
			<defs>
				<rect id="SVGID_10_" x="-45" y="816" width="2416.4" height="942.3"/>
			</defs>
			<clipPath id="SVGID_11_">
				<use xlink:href="#SVGID_10_"  style="overflow:visible;"/>
			</clipPath>
			<g class="st12">
				
					<linearGradient id="SVGID_12_" gradientUnits="userSpaceOnUse" x1="5291.8345" y1="-2526.24" x2="5289.6123" y2="-1808.4414" gradientTransform="matrix(1 0 0 -1 -4119 -950)">
					<stop  offset="0.344" style="stop-color:#465C7B"/>
					<stop  offset="1" style="stop-color:#C17C97"/>
				</linearGradient>
				<path class="st13" d="M-45,855l152.8,4.7c0,0,32.3,21.3,44.1,24.9c11.8,3.6,82.3,29.6,82.3,29.6l50,8.3l58.8,2.4l123.4,3.6
					l161.6,41.4l70.5,13c0,0,23.5,5.9,44.1,10.7s114.6,13,114.6,13s111.7-2.4,126.4-2.4c14.7,0,146.9,1.2,167.5,2.4
					c20.6,1.2,61.7,4.7,91.1,5.9c29.4,1.2,126.4,0,126.4,0l44.1-5.9l35.3-14.2c0,0,182.2-53.9,205.7-58.3
					c23.5-4.4,108.7-5.6,108.7-5.6l73.5-29.6c0,0,50,11.8,58.8,11.8c8.8,0,23.5-3.6,23.5-3.6l14.7-16.6l52.9-22.5l50-32l32.3-1.2
					c0,0,61.7,9.5,82.3,4.7c20.6-4.7,32.3-3.6,41.2-10.7c8.8-7.1,25.4-38.4,46-38.4c20.6,0,53.5-55.8,53.5-55.8s59.2,20.6,73.9,18.2
					c55.9,75.9,0,1005.2,0,1005.2H-45V855z"/>
				
					<linearGradient id="SVGID_13_" gradientUnits="userSpaceOnUse" x1="5242.5444" y1="-2576.6892" x2="5242.2876" y2="-2029.8942" gradientTransform="matrix(1 0 0 -1 -4119 -950)">
					<stop  offset="0.2" style="stop-color:#354D6A"/>
					<stop  offset="0.902" style="stop-color:#587092"/>
				</linearGradient>
				<path class="st14" d="M2365,1014.4l-40.7,13.9H2276c0,0-75.1,39.8-87.4,43.2c-12.3,3.4-85.9,28.6-85.9,28.6l-52.1,8l-61.3,2.3
					l-128.8,3.4l-168.7,40.1l-73.6,12.6c0,0-24.5,5.7-46,10.3c-21.5,4.6-119.6,12.6-119.6,12.6s-116.6-2.3-131.9-2.3
					c-15.3,0-153.4,1.1-174.8,2.3c-21.5,1.1-64.4,4.6-95.1,5.7c-30.7,1.1-131.9,0-131.9,0l-46-5.7l-36.8-13.7
					c0,0-170.3-23.2-194.9-27.4c-24.5-4.3-141.6,27.4-141.6,27.4l-65.9-21.8c0,0-30.8-7.9-51.2-37.3c-9.2,0-37.9-12.2-37.9-12.2
					l-33.7-16.7l-36.2-32.3l-45.1-13.9H186c0,0-45.8,18.4-67.3,13.9c-21.5-4.6-68.7,13.4-68.7-24.4c-9.2-6.9-21.3-13.4-42.8-13.4
					h-72.9c0,0-40.1-71.2-55.4-73.5c-58.3,73.5,0,972.5,0,972.5h2515.2L2365,1014.4z"/>
			</g>
		</g>
		<path class="st15" d="M378.6,1.7c7.5,89.2-146.3,167.3-259.4,175.8c-6.3,0.5-12.4,0.7-18.4,0.7c0,0.1,0,0.1,0,0.1
			c0,0.3-0.4,0.6-0.6,1C79.7,230.9,44,269.9,0,298.4V0h379.3c-0.2,0.5-0.4,1-0.6,1.4C378.7,1.5,378.6,1.6,378.6,1.7L378.6,1.7z"/>
		<path class="st16" d="M911.5,395.3H197.6c0,0,87.6-53,180.9-16.7c-2.1-21.9,14.3-51.7,150.6,2.6c4.9-46,99.8-149.6,226.3-8.5
			C796.7,362.4,854.8,359.4,911.5,395.3z"/>
		<path class="st17" d="M1364.1,191.5L193,199.1c27.3-18.7,170.6-18.9,170.6-18.9c62.1-40.8,148-36.3,148-36.3
			c-5.8-7.3-9-15.6-9-24.4c0-29.4,36.5-53.3,81.5-53.3c0.5,0,1,0,1.5,0c5.9-15.3,29.2-26.8,57-26.8c16.3,0,31,3.9,41.6,10.3
			c9.3-12.2,28.5-20.6,50.8-20.6c4.2,0,8.3,0.3,12.3,0.9C761.6,16.2,787,7,815.9,7c44.7,0,80.9,21.9,80.9,48.9
			c0,5.4-1.4,10.5-4.1,15.4c0,0,109.4-7.1,139.1,49.2c-1.6,0.6-3.2,1.1-4.7,1.7l6.7,2.6c-0.6-1.4-1.3-2.8-2-4.2
			c47.2-16.6,115.6-28.6,122.7,37.7C1253.9,137.2,1364.1,191.5,1364.1,191.5L1364.1,191.5z"/>
		<path class="st11" d="M2237.1,552.5l-582.2,8.5c0,0,29-23.7,74.8-15c1.3-12.7,10.6-37.8,65.5-20.8c-7.9-7.3-12.6-16.6-12.6-26.6
			c0-23.9,26.6-43.2,59.4-43.2c18.5,0,35,6.2,45.9,15.8c7.2-29.5,40.8-51.8,81.1-51.8c45.6,0,82.5,28.5,82.5,63.7
			c0,9.8-2.9,19.2-8.1,27.5c26.9-1.4,82.5,0.2,103.1,34.9c-1.2,0.4-2.3,0.8-3.4,1.1l4.8,1.5c-0.5-0.9-0.9-1.7-1.5-2.6
			C2164.3,539.7,2202.2,531.7,2237.1,552.5L2237.1,552.5z"/>
		<path class="st18" d="M2254.2,162.7h-616.4c0,0,0-106.8,145.1-26.2c57.2-41.6,169.2-107.2,183.8,5.2
			c40.6-20.1,109.3-40.6,166.4,9.4C2158.2,143.5,2200.4,138.9,2254.2,162.7z"/>
	</g>
</g>
</svg>
