<svg id="Слой_1" data-name="Слой 1" xmlns="http://www.w3.org/2000/svg" xmlns:xlink="http://www.w3.org/1999/xlink" viewBox="0 0 1875.9 1657.18"><defs><style>.cls-1,.cls-13{fill:none;}.cls-2{clip-path:url(#clip-path);}.cls-3{fill:#fff;}.cls-4{fill:url(#Безымянный_градиент_7);}.cls-5{fill:url(#Безымянный_градиент_6);}.cls-6{fill:url(#Безымянный_градиент_3);}.cls-7{fill:url(#Безымянный_градиент_4);}.cls-8{fill:#465c7b;}.cls-9{fill:#4d6382;}.cls-10{clip-path:url(#clip-path-2);}.cls-11{fill:url(#Безымянный_градиент_5);}.cls-12{fill:#344d6a;}.cls-13{stroke:#465c7b;stroke-linejoin:round;stroke-width:2px;}</style><clipPath id="clip-path" transform="translate(39.76)"><rect class="cls-1" width="1666" height="1268.22"/></clipPath><linearGradient id="Безымянный_градиент_7" x1="5329.45" y1="-1297.24" x2="5277" y2="-2941.82" gradientTransform="matrix(1, 0, 0, -1, -4469, -1454)" gradientUnits="userSpaceOnUse"><stop offset="0" stop-color="#4d6382"/><stop offset="1" stop-color="#c17c97"/></linearGradient><linearGradient id="Безымянный_градиент_6" x1="4766.34" y1="-2137.95" x2="4927.17" y2="-2875.11" gradientTransform="matrix(1, 0, 0, -1, -4469, -1454)" gradientUnits="userSpaceOnUse"><stop offset="0" stop-color="#965f75"/><stop offset="1" stop-color="#ac6c82" stop-opacity="0"/></linearGradient><linearGradient id="Безымянный_градиент_3" x1="5579.96" y1="-2151.05" x2="5839.14" y2="-2818.61" gradientTransform="matrix(1, 0, 0, -1, -4469, -1454)" gradientUnits="userSpaceOnUse"><stop offset="0" stop-color="#ac6c82"/><stop offset="1" stop-color="#465c7b" stop-opacity="0"/></linearGradient><linearGradient id="Безымянный_градиент_4" x1="6001.72" y1="-2412.81" x2="5730.97" y2="-2958.99" gradientTransform="matrix(1, 0, 0, -1, -4469, -1454)" gradientUnits="userSpaceOnUse"><stop offset="0" stop-color="#465c7b"/><stop offset="1" stop-color="#465c7b" stop-opacity="0"/></linearGradient><clipPath id="clip-path-2" transform="translate(39.76)"><rect class="cls-1" x="-39.76" y="978.31" width="1278.79" height="678.86"/></clipPath><linearGradient id="Безымянный_градиент_5" x1="4326.67" y1="-2439.07" x2="5286.74" y2="-3296.48" gradientTransform="matrix(1, 0, 0, -1, -4469, -1454)" gradientUnits="userSpaceOnUse"><stop offset="0" stop-color="#253b55"/><stop offset="1" stop-color="#4d6382" stop-opacity="0"/></linearGradient></defs><title>proj</title><g class="cls-2"><path class="cls-3" d="M0,0H1666V1268.22H0Z" transform="translate(39.76)"/><path class="cls-4" d="M0,0H1670.44V1268.22H0Z" transform="translate(39.76)"/><path class="cls-5" d="M869.31,1280.8a29.84,29.84,0,0,1-12.14,3.58c-11.23.85-53,.85-53,.85l-58.88-.84h-1.05c-5.19.1-48.84.88-115.06,1.67-70.64.85-160.55.85-160.55.85l-80.27.83s-70.64-.83-99.53-.83c-26.46,0-79.84,0-113.3,3.86-3.09.36-6,.75-8.71,1.18-32.12,5-61,6.72-85.1,9.24-20.82,2.19-36.84,1.85-51.17,3.35-2.22.23-4.42.51-6.62.86-4.62.72-9.9,1.3-15.08,1.78-2,.17-3.92.34-5.81.48-10.15.77-19.24-3.36-19.24-8.74V945.24c0-7.2,15.56-11.36,26.71-7.15a25.36,25.36,0,0,0,4.75,1.26l30.26,5a31.84,31.84,0,0,0,5.11.41H165.47a29.33,29.33,0,0,0,8.54-1.22L195.5,937a20.26,20.26,0,0,0,3.37-1.37l7.79-4.08a27.32,27.32,0,0,1,14-2.52c3.43.24,7.41.15,10.37-1,5.64-2.21,31.09-4.43,37.2-4.93.87-.08,1.75-.11,2.63-.11H303a31.34,31.34,0,0,0,5.36-.46,26.31,26.31,0,0,0,4-1l8-2.78a28.94,28.94,0,0,1,10.29-1.35,19.73,19.73,0,0,0,6.41-1.12c8-2.52,17.66,4.2,22.48,0,4.4-3.84,37-5.58,42.55-5.85.51,0,1,0,1.54,0h16.47a30.45,30.45,0,0,1,7,.79l13.4,3.19c.62.15,1.27.27,1.92.38L480.51,921l11.94,2a20.89,20.89,0,0,1,8.31,3c2,1.36,4.82,3.26,8,5.36,6,3.91,54.84,17.23,61.79,19.11.54.15,1.09.28,1.66.39,4,.81,20.8,4.24,26.45,5.72,6.42,1.68,30.51,7.56,35.32,9.24a176,176,0,0,0,20.87,5.89l1.32.27c4.35.91,7.77,2.73,9.46,5,2.32,3.15,5.28,7.47,5.28,9v28.36a4.81,4.81,0,0,1-.42,1.94c-1.06,2.42-3.49,9.15.42,12.57a36.22,36.22,0,0,1,4.89,5.34,4.84,4.84,0,0,1,1,3.52,6.22,6.22,0,0,1-1.7,3.39c-1,1.13-.79,2.52,3.78,3.72,9.64,2.52,22.48,7.56,24.09,10.08,1.23,1.95,7.26,6.91,10,9.06a13.87,13.87,0,0,0,2.86,1.75c2.94,1.38,9.26,4.53,12.87,7.68,4.82,4.21,19.26,13.45,19.26,13.45l17.33,11.55.64.45,16.66,12.69a11.76,11.76,0,0,0,1.5,1c4,2.3,22.22,12.73,26.49,17.2,4,4.21,10.28,12.53,12.24,15.16l.6.81s4.81,7.56,8,11.77a49.27,49.27,0,0,1,4.27,6.34,79.54,79.54,0,0,1,3.75,8c3.22,7.56,6.43,13.45,8,18.49s-9.63,10.92,0,17.65,9.63,5.88,11.24,13.45c.27,1.25.62,2.67,1,4.17.89,3.24,2.05,6.92,3.19,10.33,1.54,4.58,3,8.71,3.81,10.72,1.6,4.2,1.6,2.52,3.21,11.76a127.72,127.72,0,0,0,3.7,15c.83,2.71-.78,5.48-4.41,7.46Z" transform="translate(39.76)"/><path class="cls-6" d="M802.49,1283.87l930.33.72L1663.23,701c-39.74,29.83-102.49-58.49-129.86,70.64-39.24,185-133.19,111.73-146.24,119.47s-123.44-6.79-132.31,18c-52.48,30.56-46.19,77.24-46.19,77.24s-76.64,34.47-87.32,38-66.18-4.17-75.89,10.78c-2.46,3.8-5.28,7.68-8.1,11.36a94,94,0,0,1-36.1,28.61l-32.31,14.51c-14.58,6.54-23.38,22-22,38.7l1.15,13.63c1.7,20.27-10.75,38.53-29.56,43.44-23.17,6-50.14,14.38-49.64,20.36.88,10.43-33.8,34.92-61.43,32.56-7.06-.61-13.27,2.06-18.61,6.37-15.65,12.61-6.36,39.14,13.65,39.15Z" transform="translate(39.76)"/><path class="cls-7" d="M768,1425.91l31.13-15h26.35c15.56,0,52.69-13.18,52.69-13.18l12-13.18,18-27.55v-10.78l14.37-16,8.39-15.17,7.18-4.8,6-21s3.59-6.54,7.18-10.13,6-7.19,9.58-13.19,10.78-13.17,10.78-13.17,9.58-10.78,12-18a20.8,20.8,0,0,0,0-13.18l13.17-10.78,23.95-6,9.58-6s7.18-9.59,10.77-13.18-4.79,4.79,3.59-3.6,14.37-10.78,15.57-14.37,10.78-10.79,10.78-10.79,7.18-3.59,10.77-6,3.59,7.19,8.39,0-4.8,0,4.79-7.19,7.18-9.58,12-14.38,6-8.38,9.58-9.58,8.39,0,8.39,0l10.77-16.78s12-20.36,15.57-25.15,13.17-20.37,13.17-20.37l12-16.78,14.37-13.17,8.38-8.39,13.17-18V982s7.19,1.2,13.17,0,15.57,1.2,19.16,0,16.77-.34,16.77-.34l10.78-10.44,9.57-6,14.37-18s4.8-13.56,8.38-12.77S1338,920.89,1338,920.89l10.77-8.39,6-13.18,14.38-10.78v-7.19h10.76l12,12a94.77,94.77,0,0,0,7.18,12c3.6,4.8,9.59,13.18,9.59,13.18l4.79,7.19,6,8.79s1.19,17.57,4.79,20,13.17,9.59,13.17,9.59V974.8s9.58,1.2,13.17,4.79l3.59,3.6s4.8-7.19,9.58,6,8.38,17,8.38,17l4.79,13,10.78,9.59s4.68-1.2,6.53,4.79,6.64,12,6.64,12-10.77,4.8,0,6,25.16,1.19,25.16,1.19l4.79,6,6,2.4s12,19.17,16.76,16.77,20.36,7.19,20.36,7.19l18,24,10.77,13.19,4.8,18,14.37,25.17,25.74,20.37,30.54,24s13.17,6,20.36,9.59,10.78,2.39,15.57,13.18,13.16,27.55,13.16,27.55l4.79,10.78s0,16.77,3.59,24,15.57,20.37,15.57,20.37,6,4.8,10.78,9.59,19.16,14.38,23.95,19.17S1805,1365.4,1805,1365.4l31.14,56.91L768,1425.91Z" transform="translate(39.76)"/><path class="cls-8" d="M1188.78,1307.71l78.15-1.53-13.94-49-27.21-1.16,26-3.18-25.19-88.54-10.6,40.22,14.85,2.13-15.91,1.91-2.91,11,5.88.85-6.3.76-19.4,73.65,34.76,2.85-36.3,3-1.85,7Z" transform="translate(39.76)"/><path class="cls-9" d="M1436.34,989.18l9.77-39.86,10.61,39.86Zm-199.53,3.52,9.77-39.86,10.61,39.86Z" transform="translate(39.76)"/><g class="cls-10"><path class="cls-11" d="M-39.76,999.83l108-16.47s22.8-5.05,37.57-5.05h48.53s29.54,9.78,35.87,21.52S219.8,1037,219.8,1037l16.88,31.3c6.33,11.74,4.22,11.74,21.1,17.61s46.43,19.56,57,17.6,29.54-2,44.32-5.87,4.48-1.83,14.77-3.91c25.58,0,38,10,38,10l33.76,19.38s14.77,21.52,33.76,25.43,21.1-13.69,27.44,0c22.84,7.83,33.76,21.52,33.76,21.52s19-3.91,25.32-3.91,61.2-17,61.2-17,6.33-14.27,19-8.4,23.21,5.87,29.54,15.65-4.22,23.48,12.66,29.35,46.43,21.51,59.08,33.26,16.89,13.7,23.21,21.52l25.33,31.29,33.76,43a57.23,57.23,0,0,0,23.21,17.6c14.77,5.88,40.09,19.57,40.09,19.57a98.15,98.15,0,0,1,29.54,29.34c12.66,19.57,19,5.88,35.88,47s10.55,54.77,29.54,78.25,42.21,43,42.21,43,8.44,17.6,38,23.47,71.75,9.79,90.74,15.65,40.09,21.52,40.09,21.52l40.09,47-1278.77-7.83V999.83Z" transform="translate(39.76)"/><path class="cls-12" d="M273.37,1284.58h64.2l-9.8-49.13-22.3-1.69,21.44-2.66-17.73-88.84-10,39.92,12.12,2.41-13.13,1.61-2.76,10.93,4.8,1-5.19.64-18.41,73.1,28.44,3.52-29.9,2.28-1.74,6.95Zm-122.36,0H111.49l6-38.29,13.73-1.32-13.19-2.07,10.9-69.23,6.18,31.11-7.45,1.88,8.08,1.25,1.69,8.52-3,.75,3.2.49,11.32,57-17.5,2.74,18.4,1.77,1.08,5.43Z" transform="translate(39.76)"/></g><path class="cls-8" d="M1069.51,266.18l-35.07,50.08,137.3-69Z" transform="translate(39.76)"/><path class="cls-13" d="M1077.85,306.77l3.26-25.38,12.6,19.05Z" transform="translate(39.76)"/><path class="cls-8" d="M1082.09,296.93c-.71-2.45-3.25-2.34-4.43-2a4.88,4.88,0,0,0-2,3.55c-.14,1.9,2.81,2.14,4.44,2s3.06,3.33,4.29,3.88c3.08,1.37,9.73,7.36,15.79,8.11,4.85.6,4.89-1.19,4.31-2.17-2.89-.34-8.57-1.33-8.12-2.55.55-1.54,9.64-.15,11.25-3,1.28-2.27-.74-2.34-1.91-2.09-3,.9-9.37,2.18-10.54.09s-5.17-3-7-3.13C1086.42,299.75,1082.81,299.38,1082.09,296.93Z" transform="translate(39.76)"/><path class="cls-8" d="M1081.36,281.34a91.71,91.71,0,0,0,11.1,3,54.43,54.43,0,0,0,11.35,1.19,22.4,22.4,0,0,0,5.56-.68,36.31,36.31,0,0,1,5.75-1,64.43,64.43,0,0,1,11.62,0,70.84,70.84,0,0,1,11.48,1.88,38.64,38.64,0,0,1,10.93,4.27c.9.55,1.6,1,2.4,1.49a21.85,21.85,0,0,0,2.5,1.16,31.56,31.56,0,0,0,5.37,1.47,54.3,54.3,0,0,0,11.26.8A75.54,75.54,0,0,0,1193,291a47.5,47.5,0,0,0,10.2-4.78,26.24,26.24,0,0,0,4.37-3.45c.63-.61,1.37-1.4,2.14-2,.41-.3.79-.63,1.21-.9l1.28-.8a28,28,0,0,1,11.32-3.06,45.23,45.23,0,0,1,5.82-.1q2.9.09,5.78.47a86.62,86.62,0,0,1,11.32,2.29c1.86.51,3.7,1.07,5.52,1.71a26,26,0,0,1,5.25,2.36,26.36,26.36,0,0,0-5.35-2.08c-1.83-.56-3.68-1-5.54-1.47a85.12,85.12,0,0,0-11.31-1.83,56.23,56.23,0,0,0-11.38-.09,26.53,26.53,0,0,0-10.66,3.13l-1.15.76c-.38.26-.71.57-1.07.85-.7.6-1.27,1.23-2,2a27.82,27.82,0,0,1-4.61,3.72,49.11,49.11,0,0,1-10.55,5,76.78,76.78,0,0,1-22.86,4.17,56.46,56.46,0,0,1-11.66-.92,33.77,33.77,0,0,1-5.69-1.62,23.86,23.86,0,0,1-2.71-1.28c-.88-.49-1.74-1.11-2.48-1.56a36.85,36.85,0,0,0-10.39-4.14,80,80,0,0,0-11.19-2,62.55,62.55,0,0,0-11.36-.27,34.2,34.2,0,0,0-5.59.87,22.65,22.65,0,0,1-5.84.56,55.67,55.67,0,0,1-11.46-1.64A77.9,77.9,0,0,1,1081.36,281.34Z" transform="translate(39.76)"/></g></svg>