<?xml version="1.0" encoding="utf-8"?>
<!-- Generator: Adobe Illustrator 23.1.0, SVG Export Plug-In . SVG Version: 6.00 Build 0)  -->
<svg version="1.1" id="Слой_1" xmlns="http://www.w3.org/2000/svg" xmlns:xlink="http://www.w3.org/1999/xlink" x="0px" y="0px"
	 viewBox="0 0 1763 1202" style="enable-background:new 0 0 1763 1202;" xml:space="preserve">
<style type="text/css">
	.st0{clip-path:url(#SVGID_2_);}
	.st1{fill:url(#Background_1_);}
	.st2{fill:#F2EDC9;}
	.st3{fill:url(#Color-effect_1_);}
	.st4{opacity:0.63;fill:#F2EDC9;enable-background:new    ;}
	.st5{fill:#AC6C82;}
	.st6{fill:#A0677D;}
	.st7{fill:#695C78;}
	.st8{fill:#965F75;}
	.st9{fill:#C17C97;}
	.st10{fill:#465C7B;}
	.st11{fill:#3F5672;}
	.st12{fill:#3D536D;}
	.st13{fill:#3A5066;}
	.st14{opacity:0.67;fill:#F2EDC9;enable-background:new    ;}
</style>
<g>
	<defs>
		<rect id="SVGID_1_" width="1763" height="1202"/>
	</defs>
	<clipPath id="SVGID_2_">
		<use xlink:href="#SVGID_1_"  style="overflow:visible;"/>
	</clipPath>
	<g class="st0">
		
			<linearGradient id="Background_1_" gradientUnits="userSpaceOnUse" x1="868.2262" y1="1160.8828" x2="875.3922" y2="858.6231" gradientTransform="matrix(1 0 0 -1 0 1202)">
			<stop  offset="0" style="stop-color:#D38E98"/>
			<stop  offset="1" style="stop-color:#FE9F66"/>
		</linearGradient>
		<path id="Background" class="st1" d="M1763,0H0v1202h1763V0z"/>
		<path id="Sun" class="st2" d="M1188.9,761.8H674.4c0-66.8,28.8-127.3,75.3-171.1c46.5-43.8,110.9-70.9,181.9-70.9
			c71,0,135.3,27.1,181.9,70.9C1160.1,634.5,1188.9,695,1188.9,761.8z"/>
		<g id="Vectors">
			<g>
				
					<linearGradient id="Color-effect_1_" gradientUnits="userSpaceOnUse" x1="807.0669" y1="-93.614" x2="947.3589" y2="519.0991" gradientTransform="matrix(1 0 0 -1 0 1202)">
					<stop  offset="0" style="stop-color:#D38E98"/>
					<stop  offset="1" style="stop-color:#FE9F66"/>
				</linearGradient>
				<path id="Color-effect" class="st3" d="M1763,739.1H0V1202h1763V739.1z"/>
				<g id="Sun-Blur">
					<path class="st2" d="M1182.9,759.6H668.5c0-66.8,28.8-127.3,75.3-171.1c46.5-43.8,110.9-70.9,181.9-70.9s135.4,27.1,181.9,70.9
						C1154.2,632.3,1182.9,692.8,1182.9,759.6z"/>
				</g>
				<path id="Vector" class="st4" d="M1315.4,1011c-55.4,27.7-55.6,59.3-31.8,88.9c26.4,32.9,18.6,78.1-9,102.1H471.1
					c-50.4-7.1-94.8-16.1-130.7-27.5c-163.5-51.8-82.1-106,17.7-142.9c72.3-26.7,148.4-40.7,225.1-42.1
					c48.6-0.9,126.7-8.2,240.6-34.4c218.8-50.3-72.9-69.9-194.5-75.5C507.9,874,568,832.3,705,804.1c77.7-16,21.3-66.8,46-65
					c15.1,1.1,80.2,6.7,81.4,5.2c9.9-12.1,23.3-20.7,38.4-24c6.6-1.4,12.9-2.7,19-3.9c27.6-5.4,137.1,4.8,156,23.2
					c14.8,14.4-37,34-71.6,51.3c-23.8,11.8,216.9,71.9,216.9,71.9S1477.5,929.9,1315.4,1011z"/>
				<path id="Vector_2" class="st2" d="M1123.1,632c-32,30.1-72.4,52.3-117.6,63.2C1050.7,684.3,1091.1,662.1,1123.1,632z"/>
				<g id="Mountains">
					<g id="Mountains_2">
						<path id="Vector_3" class="st5" d="M1768.7,753.6l-450.9,18.5l-287.2,11.8l-45.2,1.9c43.9-21.4,113.8-58.6,149-93.5l0.2-0.1
							c0.4-0.1,0.7-0.3,1.1-0.5c0.3-0.2,0.8-0.5,1.4-1c7.1-5,32.5-22.6,37.1-24.9c4.6-2.3,22-17.1,26.7-21.1
							c0.8-0.7,1.2-1.6,1.2-2.5l-0.2-8c0-1.2,0.6-2.3,1.6-2.9l14.2-8.6c0.9-0.5,2-0.7,3-0.4c3.7,1.1,12.9,3.3,16-0.8
							c3.9-5.2,9.3-7.8,13.2-13c2.3-3,7.3-6.6,11.1-9c2.3-1.5,4.2-2.6,4.7-2.9c0.1-0.1,0.2-0.1,0.3-0.2l14.8-10.6
							c0.6-0.4,1.1-1,1.3-1.7c0.5-1.8,2-5.4,5-5.4l19.2-0.4c0.7,0,1.4-0.2,2-0.6c2.2-1.4,4.2-3.3,5.9-5.5c3.2-4.1,5.5-9.5,6.2-15.8
							c1.1-10.2,6.2-25.5,6.1-29.3l-0.3-12.3c0-0.3,0-0.6,0.1-0.9l4.8-18.3c0.1-0.3,0.1-0.6,0.1-0.9l-0.4-17.9c0-0.1,0-0.2,0-0.3
							c0-0.4,0.1-0.8,0.3-1.2l10.4-21.7c0.6-1.2,1.8-1.9,3.2-2l5.4-0.1c1.1,0,2.2-0.6,2.8-1.4l8.8-11.9c0.4-0.5,1-1,1.6-1.2
							c2.5-0.9,9.2-3.9,12.3-10.1c3.4-6.8,11-22.8,12.6-26.2c0.2-0.4,0.3-0.9,0.3-1.4c-0.1-2.6-0.2-11.5,0.1-18.1
							c0.1-3,0.3-5.5,0.7-6.6c1.3-3.8,3.8-11.5,6.4-16.6l2.2-4.3c0.3-0.5,0.7-1,1.2-1.3l14.3-9.4c0.6-0.4,1.3-0.6,2-0.6l12.4-0.2
							c5-0.1,20.2,3.9,22.7,4.5c0.3,0.1,0.5,0.1,0.7,0.1c2.5,0.2,16.6,1,24,2c8.1,1.1,16.3,2.2,24.4,2.1c7.3-0.1,18.9,2.7,21.3,3.3
							c0.3,0.1,0.6,0.2,0.8,0.3l14.2,7.4c1.1,0.6,1.8,1.7,1.8,2.9c0,1.9,1.7,3.3,3.6,3.3c0.4,0,0.8-0.1,1.1-0.2
							c5.2-1.7,12.8-4.9,12.7-9.1c-0.1-6.3-0.2-11.4,2.3-19.1c2.4-7.3,13.5-17.2,14.4-18c0,0,0.1-0.1,0.1-0.1l9.9-9.7
							c0.4-0.4,0.7-0.9,0.9-1.4c1.3-4.4,7.3-25.1,7.2-28.5l-0.4-19c-0.1-6.4-9.7-11.2-0.5-21.6c9.2-10.3,10.5-11.6,15.8-16.8
							c1.2-1.2,2.6-2.4,4-3.4c3.3-2.5,6.6-4.4,8.3-5.2c0.6-0.3,1.4-0.5,2.1-0.4c4.3,0.4,19.8,1.7,23.2-0.6
							c3.8-2.5,28.3-0.8,30.8-0.6c0.1,0,0.3,0,0.4,0.1l23.8,4.5c0.3,0.1,0.5,0.1,0.8,0.3l18.7,8.3c0,0,13.6,6.1,15.1,11.1
							c0.8,2.9,4.5,5.8,7.3,7.7c1.9,1.2,4.5,0.5,5.3-1.5c1.9-4.5,4.8-11.6,4.7-14.2c0-1.9,9.7-4.6,13.6-6.7L1768.7,753.6z"/>
						<path id="Vector_4" class="st6" d="M1310.8,662c0,0,28.1-19,3.1-30c-25-11.1,27-15.5,43.2-19.3c16.2-3.8,45.2-19.7,16.2-30.5
							c-29-10.8,43.2-9.5,58.1-35.6c14.8-26,62.8-27.4,62.8-27.4l4.1,96.6l-104.7,47.8L1310.8,662z"/>
						<path id="Vector_5" class="st6" d="M1502.2,498.6c0,0-44.5-5.3-8-13.4c36.5-8.1,101.3-61.4,101.3-61.4s31.6-7.6,33.8,5.5
							c2.2,13.1-41.4,45-41.4,45L1502.2,498.6z"/>
						<path id="Vector_6" class="st5" d="M744.8,778.7c-2.5,2.4-5.9,4.8-10.2,5.4c-9.5,1.3-44.6,1.3-44.6,1.3l-49.5-1.3
							c-0.3,0-0.6,0-0.9,0c-4.4,0.1-41.1,1.3-96.8,2.5c-59.4,1.3-135,1.3-135,1.3l-67.5,1.3c0,0-59.4-1.3-83.7-1.3
							c-22.3,0-67.2,0-95.3,5.9c-2.6,0.5-5.1,1.1-7.3,1.8c-27,7.6-51.3,10.2-71.6,14c-17.5,3.3-31,2.8-43,5.1
							c-1.9,0.4-3.7,0.8-5.6,1.3c-3.9,1.1-8.3,2-12.7,2.7c-1.7,0.3-3.3,0.5-4.9,0.7C7.6,820.5,0,814.2,0,806.1V271.8
							c0-10.9,13.1-17.2,22.5-10.8c1.2,0.8,2.6,1.5,4,1.9l25.5,7.6c1.4,0.4,2.8,0.6,4.3,0.6h96.6c2.5,0,5-0.6,7.2-1.8l18.1-10
							c1-0.6,2-1.3,2.8-2.1l6.6-6.2c3.1-2.9,7.5-4.3,11.8-3.8c2.9,0.4,6.2,0.2,8.7-1.5c4.7-3.3,26.1-6.7,31.3-7.5
							c0.7-0.1,1.5-0.2,2.2-0.2h27c1.5,0,3.1-0.2,4.5-0.7c1.2-0.4,2.3-0.9,3.4-1.5l6.7-4.2c2.5-1.6,5.6-2.2,8.7-2
							c1.2,0.1,3-0.3,5.4-1.7c6.8-3.8,14.9,6.4,18.9,0c3.7-5.8,31.2-8.4,35.8-8.8c0.4,0,0.9-0.1,1.3-0.1h13.9c2,0,4,0.4,5.9,1.2
							l11.3,4.8c0.5,0.2,1.1,0.4,1.6,0.6l32.1,9.5l10,3c2.8,0.8,5.2,2.4,7,4.6c1.7,2.1,4.1,4.9,6.8,8.1c5,5.9,46.1,26,52,28.9
							c0.5,0.2,0.9,0.4,1.4,0.6c3.3,1.2,17.5,6.4,22.3,8.6c5.4,2.5,25.7,11.4,29.7,14c4,2.5,10.8,6.4,17.6,8.9l1.1,0.4
							c3.7,1.4,6.5,4.1,8,7.6c2,4.8,4.4,11.3,4.4,13.6v42.8c0,1-0.1,2-0.3,2.9c-0.9,3.6-2.9,13.8,0.3,19c1.6,2.5,3,5.5,4.1,8.1
							c0.7,1.7,1,3.5,0.9,5.3c-0.1,1.8-0.6,3.5-1.4,5.1c-0.9,1.7-0.7,3.8,3.2,5.6c8.1,3.8,18.9,11.4,20.3,15.2
							c1,2.9,6.1,10.4,8.4,13.7c0.7,1,1.5,1.9,2.4,2.6c2.5,2.1,7.8,6.8,10.8,11.6c4.1,6.4,16.2,20.3,16.2,20.3l14.6,17.4
							c0.2,0.2,0.4,0.5,0.5,0.7l14,19.2c0.4,0.5,0.8,1,1.3,1.5c3.4,3.5,18.7,19.2,22.3,26c3.4,6.4,8.7,18.9,10.3,22.9
							c0.3,0.8,0.5,1.2,0.5,1.2s4,11.4,6.8,17.8c1.4,3.4,2.5,6.1,3.6,9.6c0.9,3,1.9,6.7,3.2,12c2.7,11.4,5.4,20.3,6.8,27.9
							c1.3,7.6-8.1,16.5,0,26.7c8.1,10.2,8.1,8.9,9.5,20.3c0.2,1.9,0.5,4,0.9,6.3c0.7,4.9,1.7,10.5,2.7,15.6
							c1.3,6.9,2.6,13.2,3.2,16.2c1.3,6.4,1.3,3.8,2.7,17.8c0.8,8.7,2.2,17.4,3.1,22.7C749.2,771.6,747.9,775.7,744.8,778.7z"/>
						<path id="Vector_7" class="st6" d="M690.4,723.3L301.3,773L0.3,663.6L0,663.4V378.1l0.3-0.2l51.7-8.3l26.3,4.2l16.2-4.2h19.3
							l11.1,21c0,0,50.6,18,56.7,13.8c6.1-4.3,28.4,0.7,28.4,0.7l27.2,29.4h28.6c0,0,37.4-19,43.5-11.4c6.1,7.6,52.7,53.7,52.7,53.7
							l17.8,23l41.7,30l37.8,26.7c0,0,26.3,36.1,40.5,29.5c14.2-6.6,44.6-20.6,44.6-20.6l36.5,20.6l30.4,25.8l4,20.6
							c0,0,22.3,32.8,30.4,40.4c8.1,7.6,28.9,30.5,28.9,30.5L690.4,723.3z"/>
						<path id="Vector_8" class="st7" d="M1763,329.4v499.4h-47.4c-39.2,0-40.5,3.8-66.2,5.1c-25.7,1.3-39.2,0-66.2,0
							s-47.3,0-78.3,3.8c-31.1,3.8-44.6,5.1-71.6,3.8c-27-1.3-62.1-2.5-87.8-2.5c-17.8,0-25.2-1.8-28.1-3c-1-0.4-1.8-1-2.3-1.8
							l-13.5-19.6c-0.5-0.7-0.7-1.4-0.8-2.2c-0.3-3.2-1-12.2,0.1-20.4c0.6-4.3,1.4-6.6,2.9-9c1.6-2.7,4.1-5.6,7.9-11.8
							c0.8-1.4,1.7-2.9,2.7-4.5c9.4-16.5,14.8-16.5,35.1-43.2c6.3-8.2,9.3-13.1,10.6-16.3c2.9-7.2-3-6.2-1.1-16.7
							c2.7-15.2,9.5-25.7,9.5-25.7s3.2-4.6,9.5-12.8c2.9-3.8,6.5-8.3,10.8-13.6c13.5-16.5,21.6-20.3,28.4-26.7
							c5.7-5.4,9.5-12.6,10.5-14.7c0.2-0.4,0.4-0.7,0.7-1.1c2.2-2.5,12.3-14,17.1-18.5c5.4-5.1,20.3-16.5,27-24.1
							c5.5-6.2,5.6-13.2,5.5-15.6c0-0.6,0.1-1.3,0.3-1.9c1.1-3,4.6-12,9.1-19.3c5.4-8.9,8.1-8.9,14.8-17.8
							c6.8-8.9,8.1-6.4,14.9-10.2c6.8-3.8,12.2-7.6,20.3-11.4c8.1-3.8,18.9-10.2,24.3-14s9.4-8.9,16.2-15.2
							c6.8-6.3,10.8-6.3,18.9-10.2c7.2-3.4,24.1-6.8,27.7-7.5c0.5-0.1,0.9-0.2,1.3-0.4c2.1-1,8.8-4.4,15.6-8.6
							c8.1-5.1,8.1-6.3,12.2-10.2c4.1-3.8,17.6-8.9,24.3-11.4c6.8-2.5,13.5-7.6,20.3-11.4c5.5-3.1,7.4-6.2,7.9-7.2
							c0.2-0.3,0.3-0.6,0.5-0.8l10.3-13.4c0.1-0.1,0.2-0.2,0.2-0.3l14.7-16.4l17.4-18.7c1-1.1,2.4-1.7,3.9-1.7h7.8
							c0.4,0,0.8-0.1,1.3-0.1L1763,329.4z"/>
						<path id="Vector_9" class="st8" d="M124.9,480.8l18.2-12.2l16.2-3.2l-11.5-21l-11.4-21.6c0,0,33.7,19.7,33.7,17.1
							c0-2.5,6.1-7.6,6.1-7.6l17.7,9.3l14,17.4l10.8,21.7h23l16.2,4.9l6.8,15.2c0,0-4.7,3.8,0,5.7c4.7,1.9,6.1,0,16.9,2.5
							c10.8,2.5,22.3-3.8,22.3-3.8l-0.7-43.5l6.8-6l16.2,6l12.2,17.5l14.9,9.5l6.1,21.6l9.5,8.8l16.9,7.7l8.1,21.6l10.1,9.5
							c0,0,6.1,12.8,10.8,15.3c4.7,2.5,6.8,13.3,6.8,13.3l-0.5,7.7l-198-21l-70.9-19.7l-38.1-67.9L124.9,480.8z"/>
						<path id="Vector_10" class="st7" d="M725.9,814.8l-10.1,1.3l-231.5,2.4c-27.8,3.5-65.2,1.5-93.2,1.5
							c-62.2-0.1-164.6,4.3-210.7,4.5c-21.7,0.1-47-1.9-68.3-3.6c-42.3-3.4-78.5-0.5-107.3,9.6c-0.1,0-2.3-0.7-4.9-0.8v-333
							c4.2,0.7,8.6,0.2,12.6-1.4l34-14c2.8-1.2,5.8-1.7,8.8-1.7H117c2.7,0,5.4,0.5,7.9,1.4l30.4,11.2c10.2,3.8,17.1,14.3,17.1,26.2
							c0,15.3,11.3,27.6,25,27.6c0.3,0,0.7,0,1,0l42.9-1.8c0.9,0,1.7-0.1,2.6-0.3l18.6-2.9c35.4-5.6,71.4,2.4,102.1,22.6
							c24.6,16.2,50.8,32.2,56.3,30.9c10.8-2.7,32.4,18.2,32.4,18.2l41.6,37.4c1.1,1,2.2,1.8,3.4,2.5l68.9,43.5
							c3.2,2,6.8,3.3,10.5,3.6c15.4,1.3,58.7,5.3,79.5,11c7.8,2.1,20,6.9,33.3,12.8c11.1,5,23,10.7,33.7,16.5
							c18.4,9.9,33.1,19.7,34.3,24.9c0.2,0.7,0.3,1.6,0.4,2.5C762.2,790.5,747.1,812.1,725.9,814.8z"/>
						<path id="Vector_11" class="st9" d="M705.7,573.4c-54.4-11-92.5-62.7-167.6-93.4c-93.2-38.1,79-116.2-18.2-148.6
							c-57.2-19.1-87.2-63.2-102.1-96.3l10,3c2.8,0.8,5.2,2.4,7,4.6c1.7,2.1,4.1,4.9,6.8,8.1c5,5.9,46.1,26,52,28.9
							c0.5,0.2,0.9,0.4,1.4,0.6c3.3,1.2,17.5,6.4,22.3,8.6c5.4,2.5,25.7,11.4,29.7,14c4,2.5,10.8,6.4,17.6,8.9l1.1,0.4
							c3.7,1.4,6.5,4.1,8,7.6c2,4.8,4.4,11.3,4.4,13.6v42.8c0,1-0.1,2-0.3,2.9c-0.9,3.6-2.9,13.8,0.3,19c1.6,2.5,3,5.5,4.1,8.1
							c0.7,1.7,1,3.5,0.9,5.3c-0.1,1.8-0.6,3.5-1.4,5.1c-0.9,1.7-0.7,3.8,3.2,5.6c8.1,3.8,18.9,11.4,20.3,15.2
							c1,2.9,6.1,10.4,8.4,13.7c0.7,1,1.5,1.9,2.4,2.6c2.5,2.1,7.8,6.8,10.8,11.6c4.1,6.4,16.2,20.3,16.2,20.3l14.6,17.4
							c0.2,0.2,0.4,0.5,0.5,0.7l14,19.2c0.4,0.5,0.8,1,1.3,1.5c3.4,3.5,18.7,19.2,22.3,26C698.8,556.8,704.1,569.4,705.7,573.4z"/>
						<path id="Vector_12" class="st9" d="M1594.4,336.6c-29.9,24.4,1.8,36.2-4.5,72.5c-6.3,36.3-76.7-31.9-142.8-44.9
							c-27.3-5.4-46,4-58.6,17c0.1-3,0.4-5.5,0.7-6.6c1.3-3.8,3.8-11.5,6.4-16.6l2.2-4.3c0.3-0.5,0.7-1,1.2-1.3l14.3-9.4
							c0.6-0.4,1.3-0.6,2-0.6l12.4-0.2c5-0.1,20.2,3.9,22.7,4.5c0.2,0.1,0.5,0.1,0.7,0.1c2.5,0.2,16.6,1,24,2
							c8.1,1.1,16.3,2.2,24.4,2.1c7.3-0.1,18.9,2.7,21.3,3.3c0.3,0.1,0.6,0.2,0.8,0.3l14.2,7.4c1.1,0.6,1.8,1.7,1.8,2.9
							c0,1.9,1.7,3.3,3.6,3.3c0.4,0,0.8-0.1,1.1-0.2c5.2-1.7,12.8-4.9,12.7-9.1c-0.1-6.3-0.3-11.4,2.3-19.1
							c2.4-7.3,13.5-17.2,14.4-18c0.1,0,0.1-0.1,0.1-0.1l9.9-9.7c0.4-0.4,0.7-0.9,0.9-1.4c1.3-4.4,7.3-25.1,7.2-28.5l-0.4-19
							c-0.1-6.3-9.7-11.2-0.5-21.6c9.2-10.3,10.5-11.6,15.8-16.8c1.2-1.2,2.6-2.4,4-3.4C1625.4,244.1,1618.3,317.1,1594.4,336.6z"/>
						<path id="Vector_13" class="st7" d="M1763.2,519.9l9.8,249l-803,27.9c0,0,2.8-1.7,8-4.6c40.6-23.1,228.7-125.4,405.1-140.8
							c3.7-0.3,7.4-0.6,11-0.8C1553.6,639.8,1706,555.2,1763.2,519.9z"/>
						<path id="Vector_14" class="st10" d="M726.3,832.1l-726,41.8v-496c33,18.1,92.1,60.9,121.9,145.6
							c42.8,121.4,111.3,68.5,122,73.1c10.7,4.6,89.9-22,98.5-5.8c8.6,16.1,47.1,61.3,47.1,61.3s62.1,19.5,70.6,21.5
							c8.6,1.9,51.4-5.7,59.9,3.8c2.2,2.4,4.6,4.9,7.1,7.2c8.3,7.9,18.6,13.8,30.1,17.4l26.2,8.2c11.8,3.7,19.7,13.6,19.7,24.8v9.1
							c0,13.6,10.9,25.2,25.9,27.6c18.5,3,40.1,7.4,40.1,11.4c0,7,28.7,21.8,50.1,19c5.5-0.7,10.5,0.8,14.9,3.4
							C747.4,813.1,741.9,831.2,726.3,832.1z"/>
						<path id="Vector_15" class="st10" d="M1763,640.8v386.8c-59.3,0.5-234.9-4.2-318.2-71.4c-8.6-6.9-16.2-14.5-22.5-22.8
							c-76.7-99.6-182.4-52.7-331.1-95.2c-26-7.4-53.4-10-77.6-21.8l-41.8-18.6c-6.5-1.7-6.1-10.6,0.6-11.7c5.7-1,12.2-2.1,19.3-3.3
							c9.8-1.7,20.8-3.5,32.7-5.6c90.4-15.5,230.4-39.8,265.7-47.8c17.5-3.9,41.5-13,70.1-22.5c58.6-19.4,136.6-40.7,218.6-24.8
							C1643.7,695,1709.2,665.6,1763,640.8z"/>
					</g>
					<g id="Mountains_3">
						<path id="Vector_16" class="st10" d="M666.9,878.3c-68.8,20.8-131.8,32.5-186.9,43.6c0,0,0,0,0,0
							c-52.4,10.6-97.8,20.7-134.5,37.6c-27.4,12.7-61.6,51.8-112.2,77.7c-38.6,19.8-86.8,32-148.6,18.8
							c-33.1-7.1-61.1-13.3-84.7-19.7v-270c0.7-0.2,1.3-0.4,1.9-0.6c13-3.2,62.1-1.5,111.6,1.2c58.8,3.2,118.2,8,118.2,8l12.7-0.4
							l24.1-0.7l32.2-1l240.6-7.2l172.4,21.3C713.8,787.2,801.1,837.7,666.9,878.3z"/>
						<path id="Vector_17" class="st11" d="M480,921.9C480,922,480,922,480,921.9c-52.4,10.6-97.8,20.7-134.5,37.6
							c-27.4,12.7-61.6,51.8-112.2,77.7l-99.7-61.7L98.6,780l14.9-12.9l49.2-42.6c0,0,10.8-48.3-8.4-75.9
							c-19.2-27.6,52.4,63.5,81.4,113.2c3,5.2,6,9.5,8.7,12.9c13,16.1,22.5,13,24.1-0.7c1.3-11.1-2.6-29.1-14-49.5
							c-15-27,11,7.5,46.2,48.5c31.4,36.6,70.2,78.4,93.6,86.1c49.6,16.2,117.5-39.6,117.5-39.6s-31.4,58.7,25.3,54.4
							C593.5,869.6,481.4,921.3,480,921.9z"/>
					</g>
				</g>
				<g id="Foreground-Mountains">
					<path id="Vector_18" class="st12" d="M1763,516.3V1202h-698.7v-31l51.4-49c15-14.3,35.9-22.4,57.7-22.4h15.2
						c0,0,0-48.2,29.3-46.5s36.6-5,51.2-18.3c14.6-13.3,56.7-47.3,56.7-47.3l61.3-5.3c14.8-1.3,27.2-10.8,31-23.8l19.2-64.7
						l51.2-116.2v-39.8c0-14.3,13.5-25.6,29.2-24.5l38.4,2.8l24.7,15.3c8.4,5.2,19.9,1.2,22.3-7.8l26.1-96.8l20.1-108.3l45.7-29.9
						L1763,516.3z"/>
					<path id="Vector_19" class="st13" d="M474.3,1202H0V565.1l100.7,25.2l35.2,56.4c10.3,16.5,13.1,36.5,7.8,55.4l-3.7,13.2
						c0,0,46.9,11.7,38.1,36.6c-8.8,24.9-4.1,32.9,5.3,48.7c9.4,15.9,32.2,60.6,32.2,60.6l-9.8,54.4c-2.4,13.1,3.8,26.1,15.6,32.6
						l58.3,32.3l100.6,72.6l38.7,9.7c14,3.5,21.7,17.9,16.7,31.3l-12.2,32.6l-20.9,17.7c-7.1,6-6,16.9,2.1,21.2L474.3,1202z"/>
				</g>
				<g id="Light-pink-Mountains">
					<path id="Vector_20" class="st9" d="M1343.6,565.1c-11.8,21.6-49.2,46.7-82.7,34.3c2.3-1.5,4.2-2.6,4.7-2.9
						c0.1-0.1,0.2-0.1,0.3-0.2l14.8-10.6c0.6-0.4,1.1-1,1.3-1.7c0.5-1.8,2-5.4,5-5.4l19.2-0.4c0.7,0,1.4-0.2,2-0.6
						c6.2-4.1,11-11.6,12.1-21.3c1.1-10.2,6.2-25.5,6.1-29.3l-0.3-12.3c0-0.3,0-0.6,0.1-0.9l4.8-18.3c0.1-0.3,0.1-0.6,0.1-0.9
						l-0.4-17.9c0-0.1,0-0.2,0-0.3C1340.4,506.1,1352.2,549.4,1343.6,565.1z"/>
					<path id="Vector_21" class="st9" d="M1323.4,573.4c0,0-70.2,68.5-126.9,99c-18.5,10-39.9,16-59.4,18.2
						c7.1-5,32.5-22.6,37.1-24.9c4.6-2.3,22-17.1,26.7-21.1c0.8-0.7,1.2-1.6,1.2-2.5l-0.2-8c0-1.2,0.6-2.3,1.6-2.9l14.2-8.6
						c0.9-0.5,2-0.7,3-0.4c3.7,1.1,12.9,3.3,16-0.8c3.9-5.2,9.3-7.8,13.2-13c2.3-3,7.3-6.6,11.1-9c2.3-1.5,4.2-2.6,4.7-2.9
						c0.1-0.1,0.2-0.1,0.3-0.2l14.8-10.6c0.6-0.4,1.1-1,1.3-1.7c0.5-1.8,2-5.4,5-5.4l19.2-0.4c0.7,0,1.4-0.2,2-0.6
						c2.2-1.4,4.2-3.3,5.9-5.5C1319.9,572.8,1323.4,573.4,1323.4,573.4z"/>
					<path id="Vector_22" class="st9" d="M736.8,695.2c-16.2-11-33.7-25.3-41.4-40.3c-10.5-20.4,7.3-40.9,21.1-52.9
						c0.9,3,1.9,6.7,3.2,12c2.7,11.4,5.4,20.3,6.8,27.9c1.3,7.6-8.1,16.5,0,26.7c8.1,10.2,8.1,8.9,9.5,20.3
						C736.2,690.8,736.5,692.9,736.8,695.2z"/>
				</g>
				<g id="Blue-trees">
					<path id="Vector_23" class="st10" d="M1402.8,712.4l5.7-39.4l6.2,39.4H1402.8z"/>
					<path id="Vector_24" class="st10" d="M1459.7,689.1l5.7-39.4l6.2,39.4H1459.7z"/>
					<path id="Vector_25" class="st10" d="M1340.6,724.5l5.8-39.4l6.2,39.4H1340.6z"/>
					<path id="Vector_26" class="st10" d="M1366.7,730l5.7-39.4l6.2,39.4H1366.7z"/>
					<path id="Vector_27" class="st10" d="M1273.2,744.2l10.1-39.4l11,39.4H1273.2z"/>
				</g>
				<g id="Purple-trees">
					<path id="Vector_28" class="st7" d="M1340.6,671.4l5.8-39.4l6.2,39.4H1340.6z"/>
					<path id="Vector_29" class="st7" d="M1402.8,630.8l5.7-39.4l6.2,39.4H1402.8z"/>
					<path id="Vector_30" class="st7" d="M1311.8,683.3l5.7-39.4l6.2,39.4H1311.8z"/>
					<path id="Vector_31" class="st7" d="M1273.2,678l10.1-39.4l11,39.4H1273.2z"/>
					<path id="Vector_32" class="st7" d="M1256.3,697.7l10.1-39.4l11,39.4H1256.3z"/>
					<path id="Vector_33" class="st7" d="M1612.2,439.3l10.1-39.4l11,39.4H1612.2z"/>
					<path id="Vector_34" class="st7" d="M1652,423.9l6.7-39.4l7.3,39.4H1652z"/>
					<path id="Vector_35" class="st7" d="M1679.5,419.7l6.7-39.4l7.3,39.4H1679.5z"/>
				</g>
				<g id="Light-Pink-trees">
					<path id="Vector_36" class="st5" d="M187.7,258.4l5.7-39.4l6.2,39.4H187.7z"/>
					<path id="Vector_37" class="st5" d="M193.7,268.7l5.7-39.4l6.2,39.4H193.7z"/>
					<path id="Vector_38" class="st5" d="M232.3,248.1l5.7-39.4l6.2,39.4H232.3z"/>
					<path id="Vector_39" class="st5" d="M251.8,258.4l5.7-39.4l6.2,39.4H251.8z"/>
					<path id="Vector_40" class="st5" d="M312.5,250.4l5.7-39.4l6.2,39.4H312.5z"/>
					<path id="Vector_41" class="st9" d="M453.7,278.1l6.7-39.4l7.2,39.4H453.7z"/>
					<path id="Vector_42" class="st9" d="M487.4,298.2l5.7-39.4l6.2,39.4H487.4z"/>
					<path id="Vector_43" class="st9" d="M1492.3,361.1l5.7-39.4l6.2,39.4H1492.3z"/>
					<path id="Vector_44" class="st9" d="M1593.5,252.7l5.7-39.4l6.2,39.4H1593.5z"/>
					<path id="Vector_45" class="st9" d="M1466.5,368.8l10.7-39.4l11.6,39.4H1466.5z"/>
					<path id="Vector_46" class="st9" d="M1297.8,585.7l5.7-39.4l6.2,39.4H1297.8z"/>
					<g id="Light-pink-trees">
						<path id="Vector_47" class="st9" d="M1516.1,377.6l5.8-39.4l6.2,39.4H1516.1z"/>
						<path id="Vector_48" class="st9" d="M1445.6,359.7l5.7-39.4l6.2,39.4H1445.6z"/>
						<path id="Vector_49" class="st9" d="M551.6,324.2l5.7-39.4l6.2,39.4H551.6z"/>
						<path id="Vector_50" class="st9" d="M586.3,436.3l5.7-39.4l6.2,39.4H586.3z"/>
						<path id="Vector_51" class="st9" d="M613.8,466l5.7-39.4l6.2,39.4H613.8z"/>
						<path id="Vector_52" class="st9" d="M543.2,327l5.7-39.4l6.2,39.4H543.2z"/>
						<path id="Vector_53" class="st9" d="M512.6,314.7l5.7-39.4l6.2,39.4H512.6z"/>
						<path id="Vector_54" class="st9" d="M470.1,289.8l5.7-39.4l6.2,39.4H470.1z"/>
						<path id="Vector_55" class="st5" d="M280.6,258.4l5.7-39.4l6.2,39.4H280.6z"/>
					</g>
				</g>
				<g id="Big-waves">
					<path id="Vector_56" class="st14" d="M569.9,966.8c-9.5,0.6-67.7,11.1-18.5,11.4c49.2,0.3,77.8-1.4,95.3-5.8
						C664.3,968.1,647.5,961.7,569.9,966.8z"/>
					<path id="Vector_57" class="st14" d="M1320.5,892.2c-3.8-0.9-28.6-2.3-9.7,5.1c19,7.3,30.4,10.3,38.2,9.9
						C1356.7,906.7,1351.6,900,1320.5,892.2z"/>
					<path id="Vector_58" class="st14" d="M427.9,993.8c5.5-0.4,6.2,3,0.8,3.8c-6.9,1-12.6,2.3-15.3,4
						c-10.8,6.5-33.4,21.9-66.5,15.1C321.6,1011.5,370.4,997.6,427.9,993.8z"/>
					<path id="Vector_59" class="st14" d="M773,899c0,0-2.2,11.4,18.6,11.9c20.8,0.5,28.7-2.7,41.6,0.8c12.9,3.6,26-8.7-5.1-9.8
						C797,900.8,785.1,892.6,773,899z"/>
				</g>
				<g id="Dark-tree-group">
					<path id="Vector_60" class="st12" d="M1554.6,733.2h-53.3l8.1-39.8l18.5-1.4l-17.8-2.2l14.7-72l8.3,32.4l-10,2l10.9,1.3
						l2.3,8.9l-4,0.8l4.3,0.5l15.3,59.3l-23.6,2.9l24.8,1.8L1554.6,733.2z"/>
					<path id="Vector_61" class="st13" d="M73.9,593.2h-66L18,545.6l22.9-1.6l-22-2.6l18.2-86.1L47.4,494L35,496.4l13.5,1.6
						l2.8,10.6l-4.9,0.9l5.3,0.6l18.9,70.8l-29.2,3.4l30.8,2.2L73.9,593.2z"/>
					<path id="Vector_62" class="st12" d="M1342.1,986.5l53.2-1.4l-9.5-45.3l-18.5-1.1l17.7-2.9l-17.2-81.9l-7.2,37.2l10.1,2
						l-10.8,1.8l-2,10.2l4,0.8l-4.3,0.7l-13.2,68.1l23.7,2.6l-24.7,2.8L1342.1,986.5z"/>
					<path id="Vector_63" class="st12" d="M1338.4,1072.5l-53.2-1.4l9.5-45.3l18.5-1.1l-17.7-2.9l17.2-81.9l7.2,37.2l-10.1,2
						l10.8,1.8l2,10.2l-4,0.8l4.3,0.7l13.2,68.1l-23.7,2.6l24.7,2.8L1338.4,1072.5z"/>
					<path id="Vector_64" class="st12" d="M1739.7,535.4l-53.2,1.4l1.3-6.5l24.7-2.8l-23.7-2.6l13.2-68.1l4.3-0.7l-4-0.8l2-10.2
						l10.8-1.8l-10.1-2l7.2-37.2l9.4,44.8l-8.5,1l9.3,2.8l7,33.3l-17.7,2.9l18.5,1.1L1739.7,535.4z"/>
				</g>
				<path id="Vector_65" class="st11" d="M1488.1,821.1l-43.3,135.2c-8.6-6.9-16.2-14.5-22.5-22.8c-76.7-99.6-182.4-52.7-331.1-95.2
					c0,0,58-32.7,201.1-7.9C1435.5,855.3,1488.1,821.1,1488.1,821.1z"/>
			</g>
			<g>
				<path id="Vector_66" class="st5" d="M28.8,291.6c0-8.4,1-60.2,6.1-54.9c5.1,5.3,6.1,54.9,6.1,54.9H28.8z"/>
				<path id="Vector_67" class="st5" d="M74.2,300.3c0-7.6,1-54.3,6.1-49.5c5.1,4.8,6.1,49.5,6.1,49.5H74.2z"/>
				<path id="Vector_68" class="st5" d="M89.7,291.6c0-7.6,1-54.3,6.1-49.5c5.1,4.8,6.1,49.5,6.1,49.5H89.7z"/>
				<path id="Vector_69" class="st5" d="M132,287c0-7.6,1-54.3,6.1-49.5c5.1,4.8,6.1,49.5,6.1,49.5H132z"/>
				<path id="Vector_70" class="st10" d="M281.8,610.1c0-7.6,1-54.3,6.1-49.5s6.1,49.5,6.1,49.5H281.8z"/>
				<path id="Vector_71" class="st10" d="M404,681.9c0-7.6,1-54.3,6.1-49.5c5.1,4.8,6.1,49.5,6.1,49.5H404z"/>
				<path id="Vector_72" class="st10" d="M429.7,694.9c0-7.6,1-54.3,6.1-49.5c5.1,4.8,6.1,49.5,6.1,49.5H429.7z"/>
				<path id="Vector_73" class="st10" d="M263.7,623.3c0-7.6,1-54.3,6.1-49.5c5.1,4.8,6.1,49.5,6.1,49.5H263.7z"/>
				<path id="Vector_74" class="st10" d="M235.7,619.3c0-7.6,1.6-54.3,9.4-49.5c7.9,4.8,9.4,49.5,9.4,49.5H235.7z"/>
				<path id="Vector_75" class="st10" d="M216.8,632c0-7.6,1.6-54.3,9.4-49.5c7.9,4.8,9.4,49.5,9.4,49.5H216.8z"/>
				<path id="Vector_76" class="st5" d="M141.7,303.5c0-7.6,1-54.3,6.1-49.5c5.1,4.8,6.1,49.5,6.1,49.5H141.7z"/>
				<path id="Vector_77" class="st8" d="M133.6,480.7l6.6-36.2l8.9,36.2H133.6z"/>
				<path id="Vector_78" class="st8" d="M200.8,479.2l7-47.1l9.4,47.1H200.8z"/>
				<path id="Vector_79" class="st8" d="M221.2,501.8l12.1-47.1l16.2,47.1H221.2z"/>
				<path id="Vector_80" class="st8" d="M242,503.7l6.4-32l8.6,32H242z"/>
				<path id="Vector_81" class="st8" d="M275.9,514.9l6.4-32l8.6,32H275.9z"/>
				<path class="st12" d="M958.6,1202.6l114.4-37.4l161.6,37.4H958.6z"/>
			</g>
		</g>
		<path id="Bird2" class="st13" d="M569.6,452.7c0.5,1.5,0.9,3,1.3,4.5c0.1,0.3,0.2,0.6,0.2,1c1.7,6.9,2.4,13.2,1.4,13.5
			c-1.3,0.4-5.3-4-8.5-7.7c-2-2.3-3.5-4.8-4.7-7.5c-18.5-3.3-54.1-9.9-83.2-7.2c0,0,38.5-18.1,81.4,0.9c-0.1-0.4-0.1-0.8-0.2-1.3
			c-0.4-3.9,0.2-7.6,3.5-8.4c2.7-0.7,5.3,3.3,7.4,8.6c16.2-9.8,49.1-23.6,90.6-9.2C659.2,442.3,609.7,441.4,569.6,452.7z"/>
		<path id="Bird3" class="st13" d="M863.1,489.4c-0.2,0.5-0.4,1-0.5,1.5c0,0.1-0.1,0.2-0.1,0.3c-0.7,2.4-1,4.5-0.6,4.6
			c0.5,0.1,2.1-1.4,3.4-2.7c0.8-0.8,1.4-1.7,1.9-2.6c7.4-1.1,21.6-3.4,33.2-2.5c0,0-15.4-6.2-32.5,0.3c0-0.1,0-0.3,0.1-0.4
			c0.1-1.3-0.1-2.6-1.4-2.9c-1.1-0.2-2.1,1.1-3,3c-6.5-3.4-19.6-8.1-36.1-3.1C827.3,485.8,847.1,485.5,863.1,489.4z"/>
		<g id="Bird1">
			<path id="Vector_82" class="st13" d="M1224.2,469.1c0,0-47.8-54.5-93.3-54.4C1085.4,414.9,1224.2,469.1,1224.2,469.1z"/>
			<path id="Vector_83" class="st13" d="M1224.1,460c0.2,1.3,0.3,2.6,0.5,3.9c0.2,2.1,0.4,4.1,0.5,6.1c0.8-0.7,1.4-1.5,1.7-2.2v0
				c0.1-0.1,0.1-0.3,0.1-0.5c0.6-2,1.3-4.6,1.8-7.6c3.4-17.9,3.8-51.7-29.7-81.8C1196.1,378.5,1218.7,420.9,1224.1,460z"/>
			<path id="Vector_84" class="st13" d="M1215.4,475.7c0,0,6.4-2.6,9.7-5.6c0.8-0.7,1.4-1.5,1.7-2.2v0c0.1-0.1,0.1-0.3,0.1-0.5
				c0.2-1-0.1-2-1.4-2.9c-0.3-0.2-0.6-0.4-0.9-0.5c-7.6-3.1-31.5,8.9-33.9,15C1188.2,485.2,1215.4,475.7,1215.4,475.7z"/>
		</g>
	</g>
</g>
</svg>
