<?xml version="1.0" encoding="utf-8"?>
<!-- Generator: Adobe Illustrator 23.1.0, SVG Export Plug-In . SVG Version: 6.00 Build 0)  -->
<svg version="1.1" id="Слой_1" xmlns="http://www.w3.org/2000/svg" xmlns:xlink="http://www.w3.org/1999/xlink" x="0px" y="0px"
	 viewBox="0 0 2365 1604" style="enable-background:new 0 0 2365 1604;" xml:space="preserve">
<style type="text/css">
	.st0{clip-path:url(#SVGID_2_);}
	.st1{fill:#FFFFFF;}
	.st2{fill:url(#SVGID_3_);}
	.st3{fill:url(#SVGID_4_);}
	.st4{fill:url(#SVGID_5_);}
	.st5{fill:url(#SVGID_6_);}
	.st6{fill:#465C7B;}
	.st7{fill:#4D6382;}
	.st8{clip-path:url(#SVGID_8_);}
	.st9{fill:url(#SVGID_9_);}
	.st10{fill:#344D6A;}
	.st11{fill:none;stroke:#465C7B;stroke-width:2;stroke-linejoin:round;}
</style>
<g>
	<defs>
		<rect id="SVGID_1_" width="2365" height="1604"/>
	</defs>
	<clipPath id="SVGID_2_">
		<use xlink:href="#SVGID_1_"  style="overflow:visible;"/>
	</clipPath>
	<g class="st0">
		<path class="st1" d="M0,0h2365v1604H0V0z"/>
		
			<linearGradient id="SVGID_3_" gradientUnits="userSpaceOnUse" x1="5686.7134" y1="-914.8029" x2="5620.0493" y2="-3005.0706" gradientTransform="matrix(1 0 0 -1 -4469 -1118)">
			<stop  offset="0" style="stop-color:#4D6382"/>
			<stop  offset="1" style="stop-color:#C17C97"/>
		</linearGradient>
		<path class="st2" d="M0,0h2371.3v1604H0V0z"/>
		
			<linearGradient id="SVGID_4_" gradientUnits="userSpaceOnUse" x1="4887.6807" y1="-1870.0851" x2="5119.6157" y2="-2933.1516" gradientTransform="matrix(1 0 0 -1 -4469 -1118)">
			<stop  offset="0" style="stop-color:#965F75"/>
			<stop  offset="1" style="stop-color:#AC6C82;stop-opacity:0"/>
		</linearGradient>
		<path class="st3" d="M1234.1,1614.8c-4.2,2.3-10,4.7-17.2,5.2c-15.9,1.2-75.2,1.2-75.2,1.2l-83.6-1.2c-0.5,0-1,0-1.5,0
			c-7.4,0.1-69.3,1.3-163.3,2.4c-100.3,1.2-227.9,1.2-227.9,1.2l-113.9,1.2c0,0-100.3-1.2-141.3-1.2c-37.6,0-113.3,0-160.8,5.6
			c-4.4,0.5-8.5,1.1-12.4,1.7c-45.6,7.3-86.6,9.8-120.8,13.4c-29.6,3.2-52.3,2.7-72.7,4.9c-3.1,0.3-6.3,0.7-9.4,1.2
			c-6.6,1.1-14.1,1.9-21.4,2.6c-2.8,0.3-5.6,0.5-8.2,0.7c-14.4,1.1-27.3-4.9-27.3-12.7v-514.4c0-10.5,22.1-16.5,37.9-10.4
			c2.1,0.8,4.3,1.4,6.7,1.8l43,7.3c2.3,0.4,4.8,0.6,7.3,0.6h163c4.3,0,8.5-0.6,12.1-1.8l30.5-9.6c1.7-0.6,3.3-1.2,4.8-2l11.1-5.9
			c5.2-2.8,12.6-4.2,19.9-3.7c4.9,0.4,10.5,0.2,14.7-1.5c8-3.2,44.1-6.4,52.8-7.2c1.2-0.1,2.5-0.2,3.7-0.2h45.6
			c2.6,0,5.2-0.2,7.6-0.7c2-0.4,3.9-0.9,5.7-1.5l11.3-4c4.3-1.5,9.4-2.1,14.6-2c2.1,0.1,5-0.3,9.1-1.6c11.4-3.7,25.1,6.1,31.9,0
			c6.3-5.6,52.6-8.1,60.4-8.5c0.7,0,1.5-0.1,2.2-0.1h23.4c3.4,0,6.8,0.4,9.9,1.1l19,4.6c0.9,0.2,1.8,0.4,2.7,0.6l54.2,9.1l17,2.9
			c4.7,0.8,8.8,2.3,11.8,4.4c2.9,2,6.8,4.7,11.4,7.8c8.5,5.7,77.9,25.1,87.7,27.8c0.8,0.2,1.5,0.4,2.4,0.6
			c5.6,1.2,29.5,6.2,37.6,8.3c9.1,2.4,43.3,11,50.1,13.4c6.8,2.4,18.2,6.1,29.6,8.6l1.9,0.4c6.2,1.3,11,4,13.4,7.3
			c3.3,4.6,7.5,10.9,7.5,13.1v41.2c0,1-0.2,1.9-0.6,2.8c-1.5,3.5-5,13.3,0.6,18.3c2.7,2.4,5.1,5.3,6.9,7.8c1.2,1.6,1.7,3.4,1.5,5.1
			c-0.2,1.7-1,3.4-2.4,4.9c-1.5,1.6-1.1,3.7,5.4,5.4c13.7,3.7,31.9,11,34.2,14.7c1.8,2.8,10.3,10,14.1,13.2c1.1,0.9,2.5,1.8,4.1,2.5
			c4.2,2,13.1,6.6,18.3,11.2c6.8,6.1,27.3,19.6,27.3,19.6l24.6,16.8c0.3,0.2,0.6,0.4,0.9,0.7l23.7,18.4c0.6,0.5,1.3,1,2.1,1.4
			c5.7,3.3,31.5,18.5,37.6,25c5.7,6.1,14.6,18.2,17.4,22l0.9,1.2c0,0,6.8,11,11.4,17.1c2.4,3.3,4.2,5.8,6.1,9.2
			c1.6,2.9,3.2,6.5,5.3,11.6c4.6,11,9.1,19.6,11.4,26.9c2.3,7.3-13.7,15.9,0,25.7c13.7,9.8,13.7,8.6,16,19.6
			c0.4,1.8,0.9,3.9,1.5,6.1c1.3,4.7,2.9,10.1,4.5,15c2.2,6.7,4.3,12.7,5.4,15.6c2.3,6.1,2.3,3.7,4.6,17.1c1.4,8.4,3.7,16.7,5.3,21.8
			C1241.5,1607.9,1239.2,1611.9,1234.1,1614.8L1234.1,1614.8z"/>
		
			<linearGradient id="SVGID_5_" gradientUnits="userSpaceOnUse" x1="6057.438" y1="-1960.3252" x2="6407.8306" y2="-2862.8125" gradientTransform="matrix(1 0 0 -1 -4469 -1118)">
			<stop  offset="0" style="stop-color:#AC6C82"/>
			<stop  offset="1" style="stop-color:#465C7B;stop-opacity:0"/>
		</linearGradient>
		<path class="st4" d="M1139.2,1623.7l1320.7,1l-98.8-784.8c-56.4,40.1-145.5-78.7-184.4,95c-55.7,248.8-189.1,150.2-207.6,160.7
			c-18.5,10.4-175.2-9.1-187.8,24.2c-74.5,41.1-65.6,103.9-65.6,103.9s-108.8,46.3-123.9,51.1c-15.1,4.8-93.9-5.6-107.7,14.5
			c-3.5,5.1-7.5,10.3-11.5,15.3c-13.6,16.8-31.2,29.9-51.3,38.5l-45.9,19.5c-20.7,8.8-33.2,29.7-31.2,52l1.6,18.3
			c2.4,27.3-15.3,51.8-42,58.4c-32.9,8.1-71.2,19.3-70.5,27.4c1.2,14-48,47-87.2,43.8c-10-0.8-18.8,2.8-26.4,8.6
			C1097.6,1588.1,1110.8,1623.7,1139.2,1623.7L1139.2,1623.7z"/>
		
			<linearGradient id="SVGID_6_" gradientUnits="userSpaceOnUse" x1="6631.9028" y1="-2284.4951" x2="6257.9629" y2="-3038.8489" gradientTransform="matrix(1 0 0 -1 -4469 -1118)">
			<stop  offset="0" style="stop-color:#465C7B"/>
			<stop  offset="1" style="stop-color:#465C7B;stop-opacity:0"/>
		</linearGradient>
		<path class="st5" d="M1090.2,1803.4l44.2-20.4h37.4c22.1,0,74.8-17.9,74.8-17.9l17-17.9l25.5-37.5v-14.7l20.4-21.7l11.9-20.6
			l10.2-6.5l8.5-28.6c0,0,5.1-8.9,10.2-13.8c5.1-4.9,8.5-9.8,13.6-17.9c5.1-8.1,15.3-17.9,15.3-17.9s13.6-14.6,17-24.4
			c3.4-9.8,0-17.9,0-17.9l18.7-14.7l34-8.2l13.6-8.1c0,0,10.2-13,15.3-17.9c5.1-4.9-6.8,6.5,5.1-4.9s20.4-14.7,22.1-19.5
			c1.7-4.9,15.3-14.7,15.3-14.7s10.2-4.9,15.3-8.2c5.1-3.3,5.1,9.8,11.9,0c6.8-9.8-6.8,0,6.8-9.8c13.6-9.8,10.2-13,17-19.6
			c6.8-6.5,8.5-11.4,13.6-13s11.9,0,11.9,0l15.3-22.8c0,0,17-27.7,22.1-34.2c5.1-6.5,18.7-27.7,18.7-27.7l17-22.8l20.4-17.9
			l11.9-11.4l18.7-24.4v-26.1c0,0,10.2,1.6,18.7,0c8.5-1.6,22.1,1.6,27.2,0c5.1-1.6,23.8-0.5,23.8-0.5l15.3-14.2l13.6-8.1l20.4-24.4
			c0,0,6.8-18.4,11.9-17.4c5.1,1.1,47.6-18.5,47.6-18.5l15.3-11.4l8.5-17.9l20.4-14.7v-9.8h15.3l17,16.3c0,0,5.1,9.8,10.2,16.3
			c5.1,6.5,13.6,17.9,13.6,17.9l6.8,9.8l8.5,12c0,0,1.7,23.9,6.8,27.1c5.1,3.3,18.7,13,18.7,13v14.7c0,0,13.6,1.6,18.7,6.5l5.1,4.9
			c0,0,6.8-9.8,13.6,8.1c6.8,17.9,11.9,23.1,11.9,23.1l6.8,17.6l15.3,13c0,0,6.6-1.6,9.3,6.5c2.6,8.1,9.4,16.3,9.4,16.3
			s-15.3,6.5,0,8.1c15.3,1.6,35.7,1.6,35.7,1.6l6.8,8.1l8.5,3.3c0,0,17,26.1,23.8,22.8c6.8-3.3,28.9,9.8,28.9,9.8l25.5,32.6
			l15.3,17.9l6.8,24.4l20.4,34.2l36.5,27.7l43.3,32.6c0,0,18.7,8.1,28.9,13c10.2,4.9,15.3,3.3,22.1,17.9
			c6.8,14.7,18.7,37.5,18.7,37.5l6.8,14.7c0,0,0,22.8,5.1,32.6c5.1,9.8,22.1,27.7,22.1,27.7s8.5,6.5,15.3,13
			c6.8,6.5,27.2,19.6,34,26.1c6.8,6.5,27.2,29.3,27.2,29.3l44.2,77.4L1090.2,1803.4L1090.2,1803.4z"/>
		<path class="st6" d="M1687.6,1654l110.9-1.9l-19.8-61.9l-38.6-1.5l36.9-4l-35.8-112l-15,50.9l21.1,2.7l-22.6,2.4l-4.1,13.9
			l8.3,1.1l-8.9,1l-27.5,93.2l49.4,3.6l-51.5,3.8L1687.6,1654L1687.6,1654z"/>
		<path class="st7" d="M2039,1209.6l13.9-54.2l15.1,54.2H2039z M1755.7,1214.4l13.9-54.2l15.1,54.2H1755.7z"/>
		<g>
			<defs>
				<rect id="SVGID_7_" x="-56.4" y="1207" width="1797.4" height="888.9"/>
			</defs>
			<clipPath id="SVGID_8_">
				<use xlink:href="#SVGID_7_"  style="overflow:visible;"/>
			</clipPath>
			<g class="st8">
				
					<linearGradient id="SVGID_9_" gradientUnits="userSpaceOnUse" x1="4300.4175" y1="-2300.4868" x2="5620.8384" y2="-3479.7144" gradientTransform="matrix(1 0 0 -1 -4469 -1118)">
					<stop  offset="0" style="stop-color:#253B55"/>
					<stop  offset="1" style="stop-color:#4D6382;stop-opacity:0"/>
				</linearGradient>
				<path class="st9" d="M-56.4,1235.2l151.9-21.6c0,0,32-6.6,52.8-6.6h68.2c0,0,41.5,12.8,50.4,28.2c8.9,15.4,41.5,48.7,41.5,48.7
					s14.8,25.6,23.7,41c8.9,15.4,5.9,15.4,29.7,23.1c23.7,7.7,65.3,25.6,80.1,23c14.8-2.6,41.5-2.6,62.3-7.7
					c20.8-5.1,6.3-2.4,20.8-5.1c36,0,53.4,13,53.4,13l47.5,25.4c0,0,20.8,28.2,47.5,33.3c26.7,5.1,29.7-17.9,38.6,0
					c32.1,10.3,47.5,28.2,47.5,28.2s26.7-5.1,35.6-5.1s86-22.3,86-22.3s8.9-18.7,26.7-11c17.8,7.7,32.6,7.7,41.5,20.5
					s-5.9,30.7,17.8,38.4c23.7,7.7,65.3,28.2,83,43.6c17.8,15.4,23.7,17.9,32.6,28.2c8.9,10.3,35.6,41,35.6,41l47.5,56.4
					c0,0,11.9,15.4,32.6,23.1c20.8,7.7,56.4,25.6,56.4,25.6s23.7,12.8,41.5,38.4c17.8,25.6,26.7,7.7,50.4,61.5
					c23.7,53.8,14.8,71.7,41.5,102.5c26.7,30.7,59.3,56.4,59.3,56.4s11.9,23.1,53.4,30.7c41.5,7.7,100.8,12.8,127.5,20.5
					c26.7,7.7,56.4,28.2,56.4,28.2l56.3,61.5l-1797.4-10.3L-56.4,1235.2L-56.4,1235.2z"/>
				<path class="st10" d="M383.7,1608h90.2l-13.8-64.3l-31.3-2.2l30.1-3.5L434,1421.7l-14.1,52.3l17,3.2l-18.5,2.1l-3.9,14.3
					l6.7,1.3l-7.3,0.8l-25.9,95.7l40,4.6l-42,3L383.7,1608L383.7,1608z M211.7,1608h-55.5l8.5-50.1l19.3-1.7l-18.5-2.7l15.3-90.7
					l8.7,40.7l-10.5,2.5l11.4,1.6l2.4,11.2l-4.1,1l4.5,0.6l15.9,74.6l-24.6,3.6l25.9,2.3L211.7,1608L211.7,1608z"/>
			</g>
		</g>
		<path class="st6" d="M1518.2,336.7l-49.8,63.3l194.9-87.2L1518.2,336.7z"/>
		<path class="st11" d="M1530.1,388l4.6-32.1l17.9,24.1L1530.1,388z"/>
		<path class="st6" d="M1536.1,375.5c-1-3.1-4.6-3-6.3-2.5c-1.2,0.6-2.7,2.6-2.8,4.5c-0.2,2.4,4,2.7,6.3,2.5
			c2.3-0.2,4.3,4.2,6.1,4.9c4.4,1.7,13.8,9.3,22.4,10.3c6.9,0.8,6.9-1.5,6.1-2.7c-4.1-0.4-12.2-1.7-11.5-3.2
			c0.8-1.9,13.7-0.2,16-3.8c1.8-2.9-1-3-2.7-2.6c-4.3,1.1-13.3,2.8-15,0.1c-1.7-2.6-7.3-3.7-10-4
			C1542.2,379.1,1537.1,378.7,1536.1,375.5z"/>
		<g>
			<path class="st6" d="M1535.1,355.8c2.6,0.8,5.2,1.4,7.8,2c2.6,0.6,5.3,1.1,7.9,1.6c5.3,0.9,10.7,1.5,16,1.3
				c2.6-0.1,5.3-0.2,7.8-0.9c1.3-0.3,2.7-0.6,4-0.9c1.4-0.2,2.7-0.5,4.1-0.6c5.5-0.6,11-0.5,16.4-0.1c5.5,0.4,10.9,1.1,16.3,2.2
				c2.7,0.6,5.4,1.3,8,2.1c1.3,0.4,2.6,0.9,3.9,1.4l1.9,0.9l1,0.4l0.9,0.5l3.5,1.9c0.6,0.3,1.1,0.5,1.7,0.8l1.8,0.7
				c2.4,0.8,5,1.4,7.5,1.9c5.2,0.9,10.5,1.1,15.8,1c10.6-0.2,21.2-1.8,31.4-4.7c2.5-0.7,5-1.6,7.5-2.6c2.4-1,4.8-2.1,7.1-3.3
				c2.3-1.3,4.4-2.7,6.4-4.4c0.9-0.8,2.1-1.9,3.2-2.7c0.6-0.4,1.2-0.9,1.8-1.2c0.6-0.3,1.3-0.7,1.9-1c2.6-1.3,5.3-2.1,8-2.7
				c2.7-0.6,5.5-1,8.2-1.1c2.7-0.2,5.5-0.2,8.2,0c2.7,0.1,5.4,0.3,8.1,0.7c5.4,0.7,10.7,1.7,16,3c2.6,0.7,5.2,1.4,7.8,2.2
				c2.6,0.9,5.2,1.7,7.5,3.1c-2.4-1.2-5.1-1.8-7.7-2.5c-2.6-0.7-5.2-1.3-7.9-1.8c-5.3-1-10.6-1.8-16-2.1c-5.3-0.4-10.7-0.5-16,0
				c-2.6,0.3-5.2,0.7-7.8,1.3c-2.5,0.6-5,1.5-7.2,2.7c-0.6,0.3-1.1,0.6-1.6,1c-0.5,0.3-1,0.7-1.5,1.1c-1,0.8-1.8,1.6-2.9,2.6
				c-2.1,1.9-4.5,3.5-6.9,4.9c-2.4,1.4-4.9,2.6-7.5,3.7c-2.6,1-5.1,2-7.8,2.8c-10.5,3.2-21.4,4.9-32.4,5.1c-5.5,0.1-11-0.2-16.5-1.2
				c-2.7-0.5-5.5-1.2-8.1-2.1l-2-0.8c-0.7-0.3-1.3-0.6-2-0.9c-0.6-0.3-1.3-0.7-1.9-1.1l-1.7-1l-0.8-0.5l-0.9-0.4l-1.8-0.8
				c-1.2-0.5-2.4-1-3.7-1.4c-2.5-0.8-5-1.6-7.6-2.1c-5.2-1.2-10.4-2-15.7-2.5c-5.3-0.5-10.6-0.7-15.9-0.4c-1.3,0-2.6,0.2-3.9,0.4
				c-1.3,0.2-2.5,0.4-3.9,0.7c-2.8,0.6-5.6,0.7-8.3,0.6c-5.5-0.2-10.9-1.1-16.2-2.2C1545.3,359.2,1540.1,357.7,1535.1,355.8z"/>
		</g>
	</g>
</g>
</svg>
